<?xml version="1.0" standalone="no"?>
<!DOCTYPE svg PUBLIC "-//W3C//DTD SVG 1.1//EN" "http://www.w3.org/Graphics/SVG/1.1/DTD/svg11.dtd" >
<svg xmlns="http://www.w3.org/2000/svg">
<metadata>
This is a custom SVG webfont generated by Font Squirrel.
Copyright   : Copyright c Jos Buivenga 2004 All rights reserved
</metadata>
<defs>
<font id="FontinRegular" horiz-adv-x="1132" >
<font-face units-per-em="2048" ascent="1638" descent="-410" />
<missing-glyph horiz-adv-x="634" />
<glyph unicode=" "  horiz-adv-x="634" />
<glyph unicode="&#x09;" horiz-adv-x="634" />
<glyph unicode="&#xa0;" horiz-adv-x="634" />
<glyph unicode="!" horiz-adv-x="540" d="M127 1454v47l19 11q19 12 51.5 23t60.5 11q53 0 86.5 -11.5t49.5 -37.5t20.5 -56.5t-1 -79t-13.5 -93t-18.5 -111.5t-14.5 -123l-58 -723h-59l-74 1000q-4 49 -16 84.5t-22 46.5zM168 84q0 45 32.5 77t78.5 32q44 0 76 -32.5t32 -76.5q0 -46 -32 -78.5t-76 -32.5 q-46 0 -78.5 32.5t-32.5 78.5z" />
<glyph unicode="&#x22;" horiz-adv-x="802" d="M82 1118q40 36 63.5 95t32 115.5t15.5 109t24 84.5t49 32h107l-23 -165q-30 -210 -186 -271q-25 -9 -51 -7t-31 7zM410 1118q40 36 63.5 95t31.5 115.5t15.5 109t24.5 84.5t49 32h106l-22 -165q-31 -210 -186 -271q-25 -9 -51 -7t-31 7z" />
<glyph unicode="#" horiz-adv-x="1441" d="M92 395l14 131q0 -4 302 -8q23 240 26 266h-268q-29 0 -37 -2l14 131q0 -4 301 -8q19 210 19 305q0 59 -17 127q51 39 91 39q23 0 37.5 -10.5t20.5 -33.5t7.5 -43t1.5 -56q0 -50 -33 -328h271q18 216 18 305q0 52 -16 127q51 39 90 39q23 0 37.5 -10.5t20.5 -33.5 t7.5 -43t1.5 -56q0 -44 -32 -328h98h102q48 0 85.5 1t63 5t34.5 11q-5 -31 -17.5 -54.5t-30 -38t-40 -24.5t-48 -14.5t-53.5 -7t-56.5 -1.5t-57.5 0h-95q-5 -46 -14 -134t-14 -130h104h102q49 0 86 1t62.5 5t34.5 11q-5 -31 -17.5 -54.5t-30 -38t-40 -24.5t-48 -14.5 t-53.5 -7t-56.5 -1.5t-57.5 0h-99q-23 -213 -30 -379l-140 -30q30 242 48 409h-275q-25 -228 -31 -379l-139 -30q33 267 47 411h-264q-29 0 -37 -2zM528 518h275q4 35 28 264h-272z" />
<glyph unicode="$" horiz-adv-x="937" d="M129 1012q0 85 35.5 161.5t111.5 133t179 67.5q-1 30 -9 142q48 10 58 10q29 0 41 -21t10 -54.5t-2 -74.5q123 -8 206 -60t83 -136q0 -37 -19 -78q-6 54 -88 94.5t-184 46.5q-1 -56 -2 -206.5t-2 -223.5q51 -31 85.5 -53t80 -56.5t75.5 -68t58 -75t41.5 -91t13.5 -104.5 q0 -144 -96 -251t-254 -132l4 -199h-100q0 129 2 190q-134 1 -214.5 57.5t-80.5 127.5q0 39 24 69q13 -45 91.5 -81.5t173.5 -36.5h6q4 372 4 483q-43 28 -54 35.5t-50.5 35t-53 39.5t-45 39.5t-44 45t-33.5 47t-29.5 55t-15.5 57.5t-7 66zM287 1067q0 -55 44.5 -102.5 t129.5 -100.5q0 279 -2 375q-78 -11 -125 -53.5t-47 -118.5zM545 535q-2 -115 2 -416q71 18 115.5 64t44.5 122q0 65 -42 119t-120 111z" />
<glyph unicode="%" horiz-adv-x="1634" d="M133 1024q0 -161 76.5 -245.5t193.5 -84.5q156 0 255 103t102 254q0 156 -78.5 241.5t-200.5 85.5q-155 0 -251.5 -98.5t-96.5 -255.5zM270 1067q0 105 44 166t118 61q89 0 142 -75.5t53 -204.5q0 -108 -50.5 -173t-123.5 -65q-86 0 -134.5 79t-48.5 212zM287 0 q526 751 711.5 1026t189.5 324q40 30 82 30q61 0 61 -41q0 -18 -12.5 -44.5t-26.5 -46.5t-33.5 -46.5t-23.5 -32.5q-2 -3 -185.5 -262t-371 -532t-246.5 -375h-145zM901 307q0 -161 76.5 -245.5t193.5 -84.5q156 0 255 103t102 254q0 156 -78.5 242t-200.5 86 q-155 0 -251.5 -99t-96.5 -256zM1038 350q0 106 44 167t118 61q89 0 142 -76t53 -205q0 -107 -50.5 -172.5t-123.5 -65.5q-86 0 -134.5 79t-48.5 212z" />
<glyph unicode="&#x26;" horiz-adv-x="1554" d="M127 360q0 -77 29 -146.5t81 -123.5t131 -85.5t173 -31.5q260 0 413 150q92 -72 188 -111t179 -39q104 0 160.5 46t56.5 112q-63 -29 -123 -29q-135 0 -340 181q120 223 137 602q18 0 50 -1t43 -1q64 0 110.5 29t46.5 79l-4 41l-4 -6q-4 -6 -22 -12t-46 -6h-282l-21 -29 l9 -55q10 -54 10 -97q0 -286 -98 -477q-214 207 -398 488q23 13 52.5 33t87.5 68t102 97.5t78.5 118t34.5 133.5q0 115 -91 186.5t-235 71.5q-180 0 -285.5 -94t-105.5 -246q0 -70 39.5 -182.5t109.5 -232.5q-124 -90 -195 -200.5t-71 -230.5zM315 475q0 152 119 248 q202 -319 440 -535q-94 -77 -215 -77q-94 0 -174 53t-125 136.5t-45 174.5zM424 1274q0 79 52 124.5t136 45.5q94 0 147.5 -52.5t53.5 -146.5q0 -48 -21 -96.5t-49 -84t-66.5 -70t-63.5 -52.5t-50 -33q-139 235 -139 365z" />
<glyph unicode="'" horiz-adv-x="475" d="M82 1118q40 36 63.5 95t32 115.5t15.5 109t24 84.5t49 32h107l-23 -165q-30 -210 -186 -271q-25 -9 -51 -7t-31 7z" />
<glyph unicode="(" horiz-adv-x="675" d="M131 485q0 -244 67.5 -476.5t182 -380.5t240.5 -148q-10 0 -43 47.5t-78 141.5t-87 211.5t-71 280t-29 324.5q0 155 27.5 302.5t67.5 251t84.5 183.5t79 119t49.5 39q-137 0 -251 -128.5t-176.5 -333.5t-62.5 -433z" />
<glyph unicode=")" horiz-adv-x="675" d="M55 -520q10 0 43 47.5t77.5 141.5t86.5 211.5t71 280t29 324.5q0 155 -27.5 302.5t-67.5 251t-84.5 183.5t-78.5 119t-49 39q137 0 251 -128.5t176.5 -333.5t62.5 -433q0 -243 -68 -476t-182.5 -381t-239.5 -148z" />
<glyph unicode="*" horiz-adv-x="823" d="M4 1112q5 29 17.5 51.5t26.5 37t38.5 24.5t43 15t51 7.5t51.5 3t55 0.5h14l-4 6q-123 224 -158 238q35 12 60 12q32 0 60 -14t54.5 -45t41.5 -53.5t42 -67.5l9 -22l8 22q127 207 127 250v4q59 -48 59 -113q0 -28 -13 -65t-25.5 -61t-37.5 -68l-14 -25l-6 -6h61 q81 0 119 0.5t77 4.5t50 12q-6 -37 -23 -63.5t-38.5 -41t-54.5 -22.5t-61.5 -10.5t-68.5 -2.5h-59l8 -12q38 -64 67.5 -114.5t52.5 -84t36 -39.5q-34 -12 -62 -12t-54 12t-43 26t-39 46.5t-32.5 50t-33.5 60.5l-9 24l-10 -24q-26 -45 -48.5 -83.5t-38.5 -68.5t-25 -52.5 t-9 -35.5v-4q-59 48 -59 115q0 30 13.5 68.5t27.5 64.5t41 71q-39 2 -111 2q-150 0 -174 -18z" />
<glyph unicode="+" horiz-adv-x="964" d="M113 457v131q0 -8 299 -8v26v102q0 48 -1 85t-5 62t-11 34q47 10 66 10q32 0 50 -13.5t22.5 -36t6 -52.5t-0.5 -62q0 -4 -1 -57.5t-1 -97.5h43h102q48 0 85 1t62.5 5t34.5 10q-5 -31 -17.5 -54t-30 -37.5t-40 -25t-48 -14.5t-53.5 -6.5t-56.5 -1.5t-57.5 0h-26 q-3 -99 -3 -281q0 -29 3 -37h-132q9 0 9 318q-49 0 -110 0.5t-104 1t-48 0.5q-29 0 -37 -2z" />
<glyph unicode="," horiz-adv-x="423" d="M25 -246q135 129 135 226q0 90 -60 90q-6 48 26.5 85.5t78.5 37.5q58 0 87.5 -34.5t29.5 -97.5q0 -79 -69 -177.5t-192 -178.5z" />
<glyph unicode="-" horiz-adv-x="618" d="M59 436v131q0 -8 222 -8h102q48 0 85 1t62.5 5t34.5 10q-5 -31 -17.5 -54t-30 -37.5t-40 -25t-48 -14.5t-53.5 -6.5t-56.5 -1.5t-57.5 0q-27 0 -90 1t-76 1q-28 0 -37 -2z" />
<glyph unicode="." horiz-adv-x="423" d="M102 84q0 44 32.5 76.5t78.5 32.5q44 0 76.5 -32.5t32.5 -76.5q0 -46 -32.5 -78.5t-76.5 -32.5q-46 0 -78.5 32.5t-32.5 78.5z" />
<glyph unicode="/" horiz-adv-x="595" d="M-53 -500q183 732 290 1245t99 596q8 14 52.5 32t84.5 18q44 0 47 -54q3 -24 -3 -56t-16.5 -69t-11.5 -43q-1 -4 -41 -171.5t-89.5 -375.5t-103 -439t-94.5 -421t-52 -262h-162z" />
<glyph unicode="0" horiz-adv-x="1165" d="M102 567q0 -153 35 -270.5t96.5 -187t137.5 -104t164 -34.5q28 0 43 2q229 23 357 200t128 441q0 147 -33.5 261t-93.5 185t-139 107.5t-172 36.5q-159 0 -278.5 -83.5t-182 -227t-62.5 -326.5zM281 651q0 170 71.5 289.5t173.5 134.5q3 0 11 1t12 1q142 0 237 -151.5 t95 -388.5q0 -194 -84 -325t-197 -134q-91 0 -163 75t-112.5 205t-43.5 293z" />
<glyph unicode="1" horiz-adv-x="659" d="M41 1057l348 151h31l51 -86l-3 -68q-3 -68 -3 -89l4 -811q0 -76 16 -154h-202v8l6 864q3 105 -37 140l-174 -56z" />
<glyph unicode="2" horiz-adv-x="917" d="M82 0h596q93 0 130.5 34t37.5 83q0 26 -6 47q-19 -19 -54.5 -22t-189.5 -3h-350l40 33q39 32 99 86t129 131.5t129 160t99.5 180t39.5 183.5q0 56 -20 106t-61.5 92.5t-115 67.5t-169.5 25q-85 0 -159 -21.5t-122.5 -65t-48.5 -99.5q0 -63 55 -83.5t101 23.5v15 q0 50 45 89.5t108 39.5q90 0 135 -73t45 -179q0 -92 -50.5 -203.5t-123 -205.5t-144.5 -173.5t-123 -128.5l-52 -49v-90z" />
<glyph unicode="3" horiz-adv-x="901" d="M41 -80q32 -4 53 -4q83 0 163 19t154.5 59t122 113t50.5 169q0 52 -9.5 95t-23.5 72t-38 52.5t-44.5 36.5t-51.5 23.5t-51 15t-51 9.5l23 55l4 2q91 42 151 119t60 159q0 45 -15 85.5t-54.5 71t-98.5 30.5q-66 0 -113 -39.5t-41 -104.5q-40 -30 -75 -29t-58.5 26.5 t-23.5 62.5q0 79 94 132.5t221 53.5q93 0 165.5 -23t114.5 -61.5t63.5 -82.5t21.5 -91q0 -89 -67 -166.5t-185 -138.5q47 -7 83.5 -17.5t78.5 -33.5t70 -56.5t46.5 -89.5t18.5 -129q0 -100 -41 -183t-107 -137.5t-152.5 -93t-174 -55t-174.5 -16.5q-33 0 -57.5 14t-34 31 t-13.5 31z" />
<glyph unicode="4" horiz-adv-x="1024" d="M61 233q42 129 159.5 347.5t243 403t185.5 224.5h125l-4 -86l-3 -68q-3 -68 -3 -89v-623q112 0 154 4t59 21q37 -162 -162 -164h-49q0 -150 2 -217q0 -76 16 -154h-202v8l2 363h-496zM242 342h342l4 506q2 80 14 156q-63 -70 -182 -286t-178 -376z" />
<glyph unicode="5" horiz-adv-x="907" d="M92 -80q34 -4 53 -4q80 0 153 22t134.5 66.5t99.5 120t41 172.5q0 72 -17.5 130.5t-44 95t-63.5 62.5t-71.5 38.5t-71.5 17.5q-69 11 -110 7l-41 -5l-19 33l33 475l33 27h331h82q34 0 59.5 0.5t42 1.5t28 4t18.5 7t14 11q5 -21 6.5 -40.5t-5.5 -43t-24 -40t-52.5 -28 t-86.5 -12.5h-340l-12 -288q526 0 526 -414q0 -100 -34.5 -185t-92 -143t-133.5 -99t-159 -60t-168 -19q-33 0 -57.5 14t-34 31t-13.5 31z" />
<glyph unicode="6" horiz-adv-x="1105" d="M141 569q0 -112 23.5 -214t70.5 -189.5t129 -140t189 -52.5q102 0 187.5 41.5t141.5 111.5t86.5 160.5t30.5 190.5q0 185 -95 278t-240 93q-168 0 -316 -107q10 130 43.5 230t83.5 159.5t109 89t125 29.5q75 0 156 -34t110 -78q6 22 6 59q0 46 -31 81t-80 54t-100.5 28 t-101.5 9t-100.5 -12.5t-103 -41.5t-99 -72t-88 -108t-71.5 -145t-47.5 -188t-17.5 -232zM344 633v53q35 22 100 37.5t117 15.5q117 0 181.5 -89.5t64.5 -252.5q0 -151 -53.5 -235t-151.5 -84q-70 0 -122.5 50.5t-80.5 134.5t-41.5 176.5t-13.5 193.5z" />
<glyph unicode="7" horiz-adv-x="851" d="M71.5 1157q-0.5 -22 11.5 -52.5t40 -52t89 -37.5t148 -16q98 0 162.5 6.5t79.5 12.5l16 6l-407 -944q-49 -118 -79 -161.5t-58 -55.5q21 -16 49 -24.5t62 -7t67.5 31.5t56.5 88l514 1192l-32 35h-469h-82q-34 0 -59.5 0.5t-42 1.5t-28 4t-18.5 7t-14 11q-6 -23 -6.5 -45z " />
<glyph unicode="8" horiz-adv-x="1048" d="M133 291q0 84 28 156t73.5 121t84.5 78t80 50q-110 87 -170.5 164.5t-60.5 167.5q0 153 104 246.5t283 93.5q145 0 235.5 -71.5t90.5 -186.5q0 -52 -19 -102.5t-45 -86t-62 -69t-61.5 -51.5t-50.5 -33q57 -42 93.5 -71t83 -72t72.5 -79.5t45 -83t19 -93.5 q0 -172 -130 -284t-324 -112q-52 0 -101.5 10t-99 34t-86 59t-59.5 90.5t-23 124.5zM285 332q0 -111 67 -179.5t168 -70.5q92 -1 168 66t76 149q0 38 -17 76t-45.5 71t-66.5 67.5t-80.5 66.5t-87.5 67q-182 -97 -182 -313zM348 1096q0 -70 59 -134.5t171 -146.5 q25 13 48 31.5t49.5 48.5t42 74.5t15.5 97.5q0 94 -53.5 146.5t-147.5 52.5q-84 0 -134 -45t-50 -125z" />
<glyph unicode="9" horiz-adv-x="1122" d="M125 735q-10 -193 79.5 -296.5t231.5 -108.5q84 -5 172.5 22.5t163.5 81.5q-24 -261 -126 -386.5t-247 -119.5q-74 5 -148.5 38t-103.5 75q-6 -24 -6 -47q-4 -47 22.5 -83t73 -56.5t96 -31.5t101.5 -13q73 -4 143.5 17t140 75.5t124 138.5t92 216t45.5 298 q5 116 -14 224.5t-62.5 203t-123.5 155t-187 66.5q-102 5 -188.5 -31.5t-145.5 -101.5t-93.5 -152t-39.5 -184zM317 825q5 133 63 206.5t150 68.5q73 -4 125.5 -63.5t78.5 -153.5t36 -193t6 -201q-39 -23 -111.5 -38t-123.5 -11q-115 4 -174 108t-50 277z" />
<glyph unicode=":" horiz-adv-x="528" d="M156 86q0 48 33.5 81.5t82.5 33.5q48 0 81.5 -33.5t33.5 -81.5q0 -49 -33.5 -83t-81.5 -34q-49 0 -82.5 34t-33.5 83zM156 676q0 48 34 81.5t82 33.5t81.5 -34t33.5 -81q0 -49 -33.5 -83t-81.5 -34q-49 0 -82.5 34t-33.5 83z" />
<glyph unicode=";" horiz-adv-x="528" d="M47 -246q135 129 135 226q0 90 -59 90q-6 48 26.5 85.5t77.5 37.5q58 0 87.5 -34.5t29.5 -97.5q0 -80 -68.5 -178t-191.5 -178zM123 670q0 44 32 76t78 32q45 0 77 -32t32 -76q0 -46 -32 -78.5t-77 -32.5q-46 0 -78 32.5t-32 78.5z" />
<glyph unicode="&#x3c;" horiz-adv-x="755" d="M80 506l45 -45l272 -322q37 -43 104.5 -65.5t127.5 -22.5h30q-21 9 -43 27.5t-34 32.5l-11 14l-231 313q-19 23 -46 46l-26 22l26 21q26 21 42 42l227 303l15 18q15 18 39 39t42 27h-30q-60 0 -130.5 -23t-109.5 -67l-268 -319z" />
<glyph unicode="=" horiz-adv-x="983" d="M113 293v131q0 -8 467 -8h102q48 0 85 1t62.5 5t34.5 10q-5 -31 -17.5 -54t-30 -37.5t-40 -25t-48 -14.5t-53.5 -6.5t-56.5 -1.5t-57.5 0q-27 0 -212.5 1t-198.5 1q-29 0 -37 -2zM113 600v131q0 -8 467 -8h102q48 0 85 1t62.5 5t34.5 10q-5 -31 -17.5 -54t-30 -37.5 t-40 -25t-48 -14.5t-53.5 -6.5t-56.5 -1.5t-57.5 0q-27 0 -212.5 1t-198.5 1q-29 0 -37 -2z" />
<glyph unicode="&#x3e;" horiz-adv-x="755" d="M82 51q21 9 43 27.5t33 32.5l12 14l231 313q19 23 45 46l27 22l-26 21q-26 21 -41 42l-228 303l-15 18q-15 18 -39 39t-42 27h31q59 0 129.5 -23t109.5 -67l271 -319q10 -13 25 -27l14 -14l-46 -45l-272 -322q-36 -43 -104 -65.5t-127 -22.5h-31z" />
<glyph unicode="?" horiz-adv-x="849" d="M33 1296q0 115 100 182.5t250 67.5q179 0 280 -105t101 -274q0 -88 -47 -176t-114 -159t-133.5 -138.5t-113.5 -137t-47 -130.5q0 -56 47 -92l-41 -23q-143 66 -143 183q0 60 23 119.5t59.5 110.5t81 101.5t89 98.5t81 94.5t59.5 97t23 98.5q0 226 -211 226 q-63 0 -111.5 -38.5t-48.5 -109.5q0 -24 10 -57q-28 -43 -88 -43q-54 0 -80 32.5t-26 71.5zM205 84q0 44 32.5 76.5t77.5 32.5t77 -32.5t32 -76.5q0 -46 -32 -78.5t-77 -32.5q-46 0 -78 32.5t-32 78.5z" />
<glyph unicode="@" horiz-adv-x="1847" d="M111 406q0 191 70 365t187.5 300.5t280.5 201.5t342 75q203 0 370 -93t263 -257.5t96 -366.5q0 -175 -64 -332t-179 -255.5t-252 -98.5q-90 0 -141 55.5t-42 173.5q-49 -98 -123.5 -147.5t-148.5 -49.5q-122 0 -211.5 121.5t-89.5 282.5q0 140 47 263t127 208.5 t187.5 134.5t226.5 49q93 0 188 -30q-10 -82 -14.5 -181t-7.5 -268.5t-4 -208.5q1 -43 0 -83t3.5 -74.5t14 -60t30 -40t52.5 -14.5q67 0 130 66.5t103.5 184t40.5 251.5q0 175 -86.5 324t-236.5 236t-328 87q-194 0 -350 -100t-244 -276.5t-88 -393.5q0 -287 147.5 -483.5 t389.5 -239.5q14 -4 49 -4q58 0 78 12q-33 -121 -189 -121q-126 0 -243 67.5t-199.5 176.5t-132 252.5t-49.5 290.5zM653 416q0 -117 64.5 -204t150.5 -87q90 0 162 94l27 727h-18q-6 0 -37.5 -4t-55.5 -12t-62.5 -26t-67 -42.5t-61 -66t-53.5 -92.5t-35 -125t-14 -162z" />
<glyph unicode="A" horiz-adv-x="1208" d="M10 0l465 1221q12 39 31 68.5t38 45.5t45 27.5t44 15.5t45 9t39 8q11 -57 49 -174l360 -1057q25 -87 72 -164h-248q-5 46 -14 70l-137 401h-475l-156 -444q-2 -7 -3.5 -16t-2.5 -11h-152zM358 569h406l-199 584z" />
<glyph unicode="B" horiz-adv-x="1138" d="M174 1313l14 35l363 10h21q85 0 154 -22q78 -24 124.5 -67t71 -95.5t24.5 -108.5q0 -90 -52.5 -165t-145.5 -130q61 -18 110 -46t90.5 -70t64.5 -103t23 -137q0 -189 -132 -301.5t-355 -112.5h-324l2 139v946q0 46 -3.5 82.5t-8.5 58t-12 39t-14.5 27t-14.5 21.5z M432 702q-1 -134 -1 -245q0 -223 5 -359h131q143 0 215 72.5t72 175.5q0 167 -93 256.5t-243 95.5zM434 797h109q69 0 137 -13q92 88 92 224q0 110 -66 174q-64 63 -157 63h-6l-101 -2q0 -131 -2 -219q-6 -222 -6 -227z" />
<glyph unicode="C" horiz-adv-x="1247" d="M106 645q0 211 81.5 376.5t231 258t343.5 92.5q131 0 248 -50.5t151 -119.5q0 -36 -40 -100.5t-89 -85.5l-33 26q0 23 -15.5 55.5t-44.5 67.5t-82.5 59.5t-119.5 24.5q-82 0 -150 -28t-114.5 -76.5t-78.5 -115t-47 -141t-15 -155.5q0 -122 29 -232t84 -197.5t144.5 -139 t201.5 -51.5q99 0 206.5 52t159.5 146q8 -16 8 -43q0 -87 -63 -155t-168.5 -104t-233.5 -36q-141 0 -254.5 51.5t-187.5 142t-113 212.5t-39 266z" />
<glyph unicode="D" horiz-adv-x="1386" d="M174 1313l14 35l463 10h15q90 0 174 -22q91 -24 171.5 -77t140 -128t94 -182t34.5 -234q0 -151 -44.5 -282t-124 -227t-196.5 -151t-256 -55h-434q2 35 2 96v43v930q0 53 -2 87.5t-14.5 80.5t-36.5 76zM432 508q0 -231 6 -399h246q68 0 134.5 36t119 99.5t85.5 158.5 t34 205v10q-1 171 -65 315q-66 147 -182 231q-109 79 -238 79h-15l-115 -4q0 -7 -5 -290t-5 -441z" />
<glyph unicode="E" horiz-adv-x="1024" d="M174 1313l14 35h308l350 6q24 -24 34 -76q8 -40 8 -75q0 -11 -1 -21q-3 -44 -15 -56h-38q-10 47 -70 78.5t-146 34.5l-174 6q-14 -243 -14 -499h322q28 0 47 6t23 13l5 7q4 0 4 -41q0 -24 -7 -42.5t-16 -30t-27 -20t-30.5 -12.5t-36.5 -6t-34 -2h-33q-2 0 -50.5 1 t-90.5 2q-21 0 -40.5 0.5t-37.5 -0.5v-84q0 -174 6 -396q0 -4 4 -12h389q28 0 47 6.5t24 13.5l5 7q4 0 4 -41q0 -28 -8 -48.5t-24.5 -32.5t-32 -19.5t-40.5 -10.5t-39.5 -3.5t-39.5 -0.5h-498l2 139v946q0 46 -3.5 82.5t-8.5 58t-12 39t-14.5 27t-14.5 21.5z" />
<glyph unicode="F" horiz-adv-x="972" d="M174 1313l14 35h310l350 6q24 -24 34 -76q8 -40 8 -75q0 -11 -1 -21q-3 -44 -15 -56h-38q-10 47 -70 78.5t-145 34.5l-177 6q-14 -243 -14 -499h322q28 0 47 6t23 13l5 7q4 0 4 -41q0 -24 -7 -42.5t-16 -30t-27 -20t-30.5 -12.5t-36.5 -6t-34 -2h-33q-2 0 -50.5 1 t-90.5 2q-21 0 -40.5 0.5t-37.5 -0.5v-84q0 -174 6 -396q0 -85 17 -141h-226l2 139v946q0 46 -3.5 82.5t-8.5 58t-12 39t-14.5 27t-14.5 21.5z" />
<glyph unicode="G" horiz-adv-x="1323" d="M106 645q0 211 81.5 376.5t231 258t343.5 92.5h2q131 0 248 -50.5t151 -119.5q0 -36 -40 -100.5t-89 -85.5l-33 26q0 23 -15.5 55.5t-45 67.5t-83.5 59.5t-120 24.5q-174 0 -285.5 -129.5t-117.5 -369.5q0 -125 26 -232t69.5 -182.5t101.5 -129t123 -79t132 -25.5 q42 0 116 16l73 15v158q0 57 -5 98.5t-13 61.5t-17.5 37.5t-17.5 27.5l14 35l18 7q18 6 53 13t70 7q63 0 117 -25q-12 -232 -14 -324l2 -186l-58 -10q-278 -60 -454 -60q-110 0 -211 46t-180 130t-126 213t-47 283z" />
<glyph unicode="H" horiz-adv-x="1546" d="M174 1313l14 35l46 13q47 13 96 13q65 0 116 -24q-15 -332 -20 -615h690q2 152 2 352q0 57 -5 98.5t-13 62t-17.5 38t-17.5 27.5l14 35l17 6q18 7 53 13.5t70 6.5q63 0 118 -24q-20 -460 -20 -809q0 -494 22 -541h-219q-6 35 -6 119q0 1 0.5 79t1 200t0.5 231h-690v-88 q0 -494 23 -541h-226q4 136 4 1087q0 57 -5 98.5t-13 62t-17 38t-18 27.5z" />
<glyph unicode="I" horiz-adv-x="653" d="M174 1315l14 35l46 13q47 13 96 13q65 0 116 -24q-20 -460 -20 -811q0 -494 23 -541h-226q4 136 4 1090q0 57 -5 98t-13 61.5t-17 38t-18 27.5z" />
<glyph unicode="J" horiz-adv-x="643" d="M-231 -252q0 38 25.5 63t72.5 25q21 0 45 -6q11 -84 106 -84q116 0 162.5 92t46.5 289q0 881 -4 963q0 57 -5 98t-13 61.5t-17 38t-18 27.5l14 35l46 13q47 13 96 13q64 0 116 -24q-20 -460 -20 -811q0 -57 1 -212.5t1 -207.5q-1 -99 -30 -183.5t-77.5 -143.5 t-111.5 -100.5t-131 -61t-137 -19.5q-78 0 -123 41.5t-45 93.5z" />
<glyph unicode="K" horiz-adv-x="1189" d="M174 1315l14 35l46 13q47 13 96 13q65 0 116 -24q-15 -341 -20 -639l424 467q45 46 45 96q0 19 -10 39l14 35q56 22 139 22q92 0 115 -20q-39 -71 -74.5 -115.5t-143.5 -155.5t-321 -325q38 -50 200.5 -269t263.5 -351t112 -136h-285q-96 153 -221 333.5t-211 278.5 l-47 58v-129q0 -494 23 -541h-226q4 136 4 1090q0 57 -5 98t-13 61.5t-17 38t-18 27.5z" />
<glyph unicode="L" horiz-adv-x="964" d="M174 1315l14 35l46 13q47 13 96 13q65 0 116 -24q-20 -460 -20 -811q0 -316 6 -428h236q88 0 146.5 30.5t68.5 77.5h39q15 -18 15 -68q1 -17 -1 -39q-8 -82 -39 -114h-674q4 136 4 1090q0 57 -5 98t-13 61.5t-17 38t-18 27.5z" />
<glyph unicode="M" horiz-adv-x="1843" d="M199 1315l14 35q76 26 141 26q87 0 129 -30q37 -144 203 -557.5t248 -587.5l420 1075q11 28 37 45.5t62 25t81 13t94 8.5q-3 -48 -3.5 -83t-0.5 -103t-2 -150q-2 -94 -2 -204q0 -297 14 -707q4 -82 15 -121h-226l2 123q2 116 2 237q0 120 -2 246q-4 250 -8 350 q0 19 -2 66.5t-2 56.5l-43 -133l-350 -815l-55 -174l-86 18q-36 7 -64 25.5t-45 43.5t-26 45.5t-15 41.5l-338 830q-15 40 -35 118q4 -56 4 -135q-13 -811 -14 -838q0 -73 8 -106h-149l4 33q17 312 30 684.5t15 519.5q-36 65 -55 78z" />
<glyph unicode="N" horiz-adv-x="1548" d="M182 1315l15 35q57 23 96 23q14 0 26 -3l807 -928q27 -29 52 -80l24 -51l-7 51q-7 51 -7 78q4 0 4 654q0 159 -53 221l14 35q36 24 102 24q63 0 93 -22q-25 -525 -25 -961q0 -231 10 -391h-112l-779 891l-38 52q-37 52 -46 75q7 -40 7 -90t-2.5 -151t-2.5 -152 q0 -456 21 -625h-148v33q3 266 3 731v330q0 83 -11 130.5t-43 90.5z" />
<glyph unicode="O" horiz-adv-x="1392" d="M100 651q0 -129 29.5 -240.5t80 -190.5t117.5 -135.5t141.5 -84t152.5 -27.5q198 0 349 96.5t231.5 260.5t84.5 368q0 162 -43 291.5t-118 212t-173 126.5t-211 44q-136 0 -255 -53.5t-204 -147.5t-133.5 -229t-48.5 -291zM322 717q0 144 45 265t125 192t178 71 q104 0 194.5 -82.5t144.5 -225t54 -308.5q0 -145 -44.5 -267t-124 -194t-175.5 -72q-108 0 -200.5 89t-144.5 231.5t-52 300.5z" />
<glyph unicode="P" d="M172 1313l14 35l369 12h23q66 0 126 -11t121 -40.5t105 -75t72 -120.5t28 -171q0 -123 -66.5 -222t-178.5 -153.5t-246 -54.5q-53 0 -109 12q9 -452 19 -524h-224v33q-1 63 1 243q1 108 1 183v86q0 60 1 168t1 167t-2 141.5t-7.5 130.5t-17.5 93.5t-30 67.5zM430 633 q37 -19 129 -19q122 0 205.5 78t83.5 205q0 93 -28.5 164t-74 110t-96.5 57q-46 17 -92 17h-10l-111 -4q-6 -74 -6 -547v-61z" />
<glyph unicode="Q" horiz-adv-x="1398" d="M100 651q0 -129 29.5 -240.5t80 -190.5t117.5 -135.5t141.5 -84t152.5 -27.5q3 0 9 1t9 1q21 -164 135 -263t258 -99q98 0 157 32t111 103q-16 -4 -38 -4q-106 0 -201.5 24.5t-176.5 81.5t-116 140q234 48 373 242.5t145 465.5q0 162 -43 291.5t-118 212t-173 126.5 t-211 44q-136 0 -255 -53.5t-204 -147.5t-133.5 -229t-48.5 -291zM322 717q0 144 45 265t125 192t178 71q104 0 194.5 -82.5t144.5 -225t54 -308.5q0 -145 -44.5 -267t-124 -194t-175.5 -72q-108 0 -200.5 89t-144.5 231.5t-52 300.5z" />
<glyph unicode="R" horiz-adv-x="1218" d="M172 1313l14 35q377 10 392 10q66 0 126 -11t121 -40t105 -74t72 -120t28 -171q0 -134 -77 -238.5t-205 -152.5q26 -13 235 -272t236 -279h-277q-26 53 -75.5 122.5t-104.5 134.5t-115.5 134t-107.5 121q-53 0 -109 12q9 -452 19 -524h-224v33q-1 63 1 243q1 108 1 183 v86q0 60 1 168t1 167t-2 141.5t-7.5 130.5t-17.5 93.5t-30 67.5zM430 633q37 -19 129 -19q122 0 205.5 78t83.5 205q0 94 -28.5 165.5t-74.5 110t-96 56.5q-45 16 -92 16h-10l-111 -4q-6 -74 -6 -547v-61z" />
<glyph unicode="S" horiz-adv-x="983" d="M113 180q0 32 22 68q13 -46 111 -88.5t194 -42.5q49 0 91.5 9t81 29.5t61 58.5t22.5 91q0 55 -32 105.5t-82.5 90t-112 79.5t-123.5 83.5t-112.5 92t-82.5 114.5t-32 142q0 68 24.5 132.5t70.5 117t120 84.5t164 32q77 0 147.5 -18t101 -33.5t72.5 -40.5q7 -27 9 -68 q0 -5 1 -10q0 -37 -10 -76q-11 -45 -35 -69l-39 8q-22 68 -73.5 115t-101.5 64.5t-95 17.5q-77 0 -138 -46t-61 -128q0 -54 34 -103t88 -88t120 -79t131.5 -85t119.5 -96t88 -123t34 -155q0 -164 -124 -278t-318 -114q-133 0 -234.5 63.5t-101.5 143.5z" />
<glyph unicode="T" horiz-adv-x="1107" d="M22 1179q4 -40 13 -53h39q6 47 65.5 78t149.5 31h157q9 -48 9 -156l1 -323q1 -130 1 -271q0 -212 -2 -452v-33h223q-12 75 -12 90q-2 80 -2 224v97v200q1 153 2.5 290.5t2.5 234.5t1 99h157q90 0 149.5 -31t65.5 -78h39q9 13 13 53q1 12 2 26q0 31 -7 68q-10 54 -40 87 l-283 -12h-416l-282 12q-30 -33 -40 -87q-7 -38 -8 -69q1 -13 2 -25z" />
<glyph unicode="U" horiz-adv-x="1445" d="M168 1315l14 35l46 13q47 13 96 13q64 0 116 -24q-10 -254 -10 -897q0 -86 21.5 -151t53.5 -101t76.5 -58.5t82.5 -29t79 -6.5q150 0 251.5 79.5t109.5 194.5q8 0 8 711q0 159 -53 221l14 35q36 24 103 24q62 0 92 -22q-21 -441 -21 -908q0 -205 -139.5 -339t-382.5 -134 q-89 0 -159 12.5t-132.5 44t-105 83t-68.5 131.5t-29 186q-10 390 -10 662q0 57 -5 98.5t-13 61.5t-17.5 37.5t-17.5 27.5z" />
<glyph unicode="V" horiz-adv-x="1280" d="M31 1313q9 -3 26.5 -23.5t53 -92.5t69.5 -179l318 -887q13 -50 48 -96t101 -60l86 -18l55 174l398 944q67 166 74 273q-41 28 -107 28q-68 0 -125 -26l-14 -35q43 -47 43 -115q0 -58 -31 -135l-278 -713q-17 -42 -32 -96l-14 -55q-68 153 -214 570t-179 568 q-36 37 -123 37q-79 0 -141 -28z" />
<glyph unicode="W" horiz-adv-x="1900" d="M31 1313q9 -3 26.5 -23.5t53 -92.5t69.5 -179l287 -887q13 -50 48 -96t101 -60l86 -18l56 174l209 561l182 -561q13 -50 48 -96t101 -60l86 -18l56 174l360 944q63 162 74 273q-45 20 -119 20q-72 0 -113 -20l-14 -35q43 -46 43 -115q0 -60 -31 -133l-241 -713 q-17 -42 -30 -96l-13 -55q-61 136 -191.5 553.5t-167.5 584.5q-36 37 -125 37q-83 0 -145 -28l-14 -35q9 -3 26.5 -23.5t53 -92.5t69.5 -179l39 -121l-184 -545q-17 -42 -30 -96l-13 -55q-61 136 -191.5 553.5t-167.5 584.5q-36 37 -125 37q-83 0 -145 -28z" />
<glyph unicode="X" horiz-adv-x="1079" d="M33 0l71 100l355 559l-195 361q-56 107 -89 165.5t-54.5 83.5t-57.5 44l15 35q61 28 141 28q86 0 123 -37q32 -69 48.5 -108.5t67.5 -136t146 -265.5l43 78l107 174q13 24 28 47.5t27 55.5t12 57q0 46 -22 72l14 35q48 28 115 28q72 0 116 -28q-18 -103 -137 -281 l-239 -354l325 -592q17 -31 41.5 -61.5t39.5 -45.5l16 -14h-273l-289 537l-59 -103l-209 -323q-19 -36 -32 -73l-13 -38h-182z" />
<glyph unicode="Y" horiz-adv-x="1064" d="M10 1313l15 35q59 28 143 28q87 0 121 -37q46 -113 144 -303t153 -278l10 26q11 26 25 50l170 301q27 49 27 94q0 44 -25 84l14 35q61 28 115 28q50 0 108 -28q0 -36 -40 -129t-79 -152l-252 -405q0 -36 -1 -142t-1 -168q0 -239 17 -352h-223v33q0 84 1 200t1 150 q0 199 -2 233q-15 15 -43 64l-197 344q-27 47 -58 105t-43 79.5t-30 48t-33 37t-37 19.5z" />
<glyph unicode="Z" horiz-adv-x="1159" d="M31 41l53 63l680 1057l61 70h-194h-269q-89 0 -148.5 -31t-66.5 -78h-38q-9 13 -13 55q-1 13 -2 27q0 32 7 71q10 56 40 89l283 -12h678l6 -43l-22 -27q-22 -26 -29 -39l-672 -1044l-57 -66h235h281q90 0 149.5 31t65.5 78h39q8 -13 13 -55q1 -13 1 -27q0 -32 -7 -71 q-10 -56 -40 -89h-283h-745z" />
<glyph unicode="[" horiz-adv-x="507" d="M57 -141v1624h338v-99h-166v-1427h166v-98h-338z" />
<glyph unicode="\" horiz-adv-x="729" d="M10 1337q0 -24 9 -56.5t22.5 -69t15.5 -42.5q90 -271 289 -889t238 -780h161q-246 727 -398 1242t-152 599q-9 14 -55.5 32t-86.5 18q-43 0 -43 -54z" />
<glyph unicode="]" horiz-adv-x="509" d="M115 -43v-98h338v1624h-338v-99h166v-1427h-166z" />
<glyph unicode="^" horiz-adv-x="1277" d="M145 655l435 795h114l434 -795h-143l-348 629l-348 -629h-144z" />
<glyph unicode="_" horiz-adv-x="921" d="M0 -154h983l-61 -122h-922v122z" />
<glyph unicode="`" horiz-adv-x="692" d="M127 1483l80 -140q107 -186 276 -186q23 0 49.5 13.5t26.5 19.5q-52 16 -91 52.5t-61 76.5t-42.5 77.5t-48.5 62t-66 24.5h-123z" />
<glyph unicode="a" horiz-adv-x="1019" d="M76 238q0 96 57.5 167t150 105.5t205.5 35.5q72 0 154 -22q4 82 4 123q0 68 -7 116t-26.5 92t-59 66.5t-99.5 22.5q-70 0 -114 -43.5t-44 -101.5q0 -3 1 -10.5t1 -10.5q-29 -20 -70 -20q-40 0 -69 25t-29 67q0 59 50 103t123 64.5t155 20.5q370 0 370 -293 q0 -10 -1 -46.5t-2 -125t-1 -225.5q0 -59 8 -122t21 -91q37 -74 141 -74v-36q-30 -19 -88.5 -35.5t-101.5 -16.5q-39 0 -69 18t-45.5 43.5t-25.5 56t-13 50.5t-3 33q-28 -89 -116.5 -145t-176.5 -56q-135 0 -207.5 78.5t-72.5 186.5zM260 272q0 -59 41 -105t119 -46 q72 0 136 31.5t81 66.5l6 256q-14 0 -42 -1.5t-92.5 -13t-115.5 -30.5t-92 -60.5t-41 -97.5z" />
<glyph unicode="b" d="M98 1458v37l20 13q20 12 62 25t86 13q76 0 104 -44q26 -41 25 -129v-13q-1 -44 -6.5 -147.5t-7.5 -190.5q-2 -64 -12 -102q133 118 284 118q75 0 142 -29.5t121.5 -88t87 -157t32.5 -224.5q0 -84 -19 -165t-59.5 -154t-97 -127.5t-136.5 -87t-173 -32.5 q-115 0 -209.5 36.5t-122.5 99.5q-22 49 -23 163v48q0 105 3 268l-4 686q0 85 -25.5 131.5t-71.5 52.5zM379 848q0 -371 8 -543q6 -128 44 -178.5t142 -50.5q55 0 99.5 20.5t73.5 56t49.5 78t31 93t15 93.5t4.5 87q0 185 -84 292t-217 107q-92 0 -166 -51v-4z" />
<glyph unicode="c" horiz-adv-x="966" d="M96 461q0 255 133 416t349 161q80 0 149 -18t118.5 -60.5t49.5 -105.5q0 -36 -28 -64t-76 -28q-40 0 -68 29q-14 133 -186 133q-77 0 -137 -58t-90.5 -147.5t-30.5 -190.5q0 -103 32.5 -191.5t104.5 -148t172 -59.5q89 0 177 48.5t142 131.5l4 -17q4 -16 4 -32 q0 -76 -59 -143.5t-151 -105.5t-189 -38q-84 0 -157.5 28.5t-133.5 85.5t-94.5 153.5t-34.5 220.5z" />
<glyph unicode="d" horiz-adv-x="1138" d="M96 461q0 84 19 166t59.5 156.5t97 131t137 90t173.5 33.5q87 0 180 -28l-2 264q0 84 -25.5 131t-70.5 53v37l20 13q20 12 61.5 25t85.5 13q75 0 102.5 -43.5t27.5 -142.5q0 -46 -8.5 -204.5t-8.5 -307.5q0 -373 10 -588q3 -62 16 -103t37 -61t49.5 -27t63.5 -8v-36 q-37 -17 -53 -24t-55 -17.5t-74 -10.5q-23 0 -45.5 6.5t-46 21t-41 44t-23.5 70.5q-152 -142 -303 -142q-75 0 -141.5 28t-121.5 84t-87.5 153t-32.5 223zM287 496q0 -184 83 -285.5t218 -101.5q87 0 174 65v31q0 25 1 189.5t1 193.5v309q-100 29 -205 29q-65 0 -115.5 -30 t-79.5 -75.5t-47 -106t-24 -113t-6 -105.5z" />
<glyph unicode="e" horiz-adv-x="1007" d="M96 461q0 164 52.5 295t151 206.5t226.5 75.5q73 0 132 -18.5t97 -46t66 -68t42 -77t22.5 -80.5t10 -70t1.5 -55v-48q-43 -24 -119 -24l-493 6q2 -31 2 -82q0 -162 83.5 -254t217.5 -92q89 0 177 48.5t142 131.5l4 -17q4 -16 4 -32q0 -76 -59 -143.5t-151 -105.5 t-189 -38q-67 0 -127 17.5t-113 55.5t-92 94t-62.5 138.5t-25.5 182.5zM279 639l438 8q0 110 -57 193.5t-162 83.5q-49 0 -86 -21t-61.5 -63t-40.5 -88t-31 -113z" />
<glyph unicode="f" horiz-adv-x="671" d="M92 942l12 -4q12 -4 34 -22.5t42 -47.5q27 -38 27 -309q0 -77 -2 -204.5t-4 -225t-2 -100.5v-29h209q-33 149 -33 754v133q7 0 65.5 -1t73.5 -1q156 0 156 108l-4 39l-4 -6q-5 -6 -23 -12t-45 -6h-225q4 8 4 47v20l-4 142v17q0 185 145 185q40 0 67 -24.5t33 -59.5 q24 -10 54 -10q39 1 64.5 27.5t25.5 62.5q0 64 -61.5 97.5t-139.5 33.5q-43 0 -84.5 -11.5t-85.5 -41.5t-79 -76t-61.5 -121t-35.5 -170q-5 -61 -36.5 -89.5t-72.5 -32.5z" />
<glyph unicode="g" horiz-adv-x="1073" d="M82 -287q0 39 28.5 75t82.5 36q22 0 45 -13.5t38 -35.5q-10 -35 -10 -58q0 -73 72.5 -110t179.5 -37q122 0 212.5 58t90.5 147q0 50 -37 77.5t-95.5 36t-129.5 11t-142.5 9t-130 24t-95.5 63t-37 117.5q0 117 143 182q-76 47 -124 131t-48 203q0 178 119.5 293.5 t308.5 115.5q52 0 110 -15t85 -42l36 27h183q27 0 45 6t22 12l4 6q13 -29 13 -55q0 -48 -38.5 -71t-94.5 -23q-34 0 -62 11t-31 11l-8 -2q47 -36 75 -104t28 -142q0 -101 -34 -182t-92 -131t-130 -76t-152 -26q-92 0 -174 30q-47 -35 -47 -92q0 -12 6 -35q8 -28 43.5 -43.5 t86 -19t112.5 -7t125.5 -6t123.5 -17.5t106.5 -39t74.5 -73t28 -118q0 -105 -74 -184.5t-183.5 -117.5t-231.5 -38q-112 0 -207.5 26t-157 79.5t-61.5 125.5zM319 684q0 -162 58.5 -262t165.5 -100q87 0 136.5 73.5t49.5 202.5q0 157 -64 255.5t-171 98.5q-54 0 -91.5 -28 t-54 -73.5t-23 -85t-6.5 -81.5z" />
<glyph unicode="h" horiz-adv-x="1196" d="M104 1458v37l20 13q20 12 62 25t86 13q67 0 96 -36.5t30 -110.5v-17q0 -69 -7 -168q-11 -156 -11 -329q0 -40 1 -80q26 43 59 80.5t80 73.5t110.5 57.5t135.5 21.5q104 0 173.5 -73t72.5 -170v-24q0 -46 -2 -170q-1 -67 0 -134q0 -107 2 -215q4 -175 20 -252h-201 q-5 34 -5 68q0 15 1 30l4 492v16q1 140 -33 202q-36 66 -132 69q-168 0 -285 -134q4 -413 16 -657q4 -61 11 -86h-203v31q1 185 1 385q0 400 -5 858q0 85 -25.5 131.5t-71.5 52.5z" />
<glyph unicode="i" horiz-adv-x="573" d="M111 946v37q80 51 182 51q67 0 87 -44q16 -36 16 -96q0 -15 -1 -32l-6 -209q-6 -209 -6 -499q0 -96 12 -154h-202v8l16 690v24q0 52 -7 94q-9 50 -24 73.5t-30 37.5t-26 17zM172 1313q0 43 32.5 74.5t78.5 31.5q43 0 75.5 -31.5t32.5 -74.5q0 -44 -32.5 -77.5 t-75.5 -33.5q-46 0 -78.5 33.5t-32.5 77.5z" />
<glyph unicode="j" horiz-adv-x="565" d="M-23 -453q46 -57 103 -57q43 0 96.5 39t101 101.5t79.5 153t32 181.5v737q4 124 4 158q0 94 -23.5 134t-95.5 40q-44 0 -86 -13t-62 -25l-20 -13v-37q47 -6 74 -53t27 -131l1 -351q1 -351 1 -440q0 -93 -29.5 -190t-84.5 -165t-118 -69zM172 1313q0 43 32.5 74.5 t78.5 31.5q43 0 75.5 -31.5t32.5 -74.5q0 -44 -32.5 -77.5t-75.5 -33.5q-46 0 -78.5 33.5t-32.5 77.5z" />
<glyph unicode="k" horiz-adv-x="1101" d="M109 1458v37l20 13q20 12 61.5 25t85.5 13q71 0 100.5 -37.5t29.5 -119.5q0 -38 -9.5 -335t-9.5 -495l322 266q58 48 61 86q0 20 -25 35v37q22 15 77 33t102 18q88 0 88 -53q0 -32 -37 -72.5t-86 -73.5t-98 -69l-236 -166l104 -145q16 -22 46.5 -64.5t48.5 -67.5 t48 -62.5t51.5 -60.5t52 -51t58 -45t61 -30.5t67.5 -18.5v-35q-24 -19 -76.5 -33t-89.5 -14q-73 0 -121.5 20.5t-87 62t-99.5 132.5q-35 53 -82.5 127t-71 109.5t-45.5 65.5t-32 34q0 -404 23 -524h-205v31q0 67 1 225.5t1 235.5l-2 782q0 84 -25.5 131t-70.5 53z" />
<glyph unicode="l" horiz-adv-x="573" d="M109 1458v37l20 13q20 12 61.5 25t85.5 13q68 0 97.5 -36.5t31.5 -110.5v-31q0 -65 -6 -154q-12 -240 -11 -563v-27q0 -340 9 -538q1 -17 13 -86h-205v31q2 229 2 475q0 164 -1 337l-1 431q0 84 -25.5 131t-70.5 53z" />
<glyph unicode="m" horiz-adv-x="1822" d="M102 946v37q82 51 183 51q35 0 58 -13.5t33 -37t14 -55.5q2 -15 1 -30q0 -18 -2 -36l-10 -57q25 42 60 80t83 74t113 57.5t137 21.5q95 0 162 -62.5t82 -152.5q26 40 59.5 75t79.5 68t107.5 52.5t130.5 19.5q104 0 173 -72.5t72 -170.5v-24q0 -45 -2 -169q-1 -62 0 -125 q0 -112 2 -225q4 -175 21 -252h-201q-5 34 -5 68q0 15 1 30l4 492v16q0 140 -34 202q-36 66 -132 69q-162 0 -274 -117q-2 -156 -3 -281q0 -376 23 -479h-200q-5 37 -5 68q0 16 1 30l4 492v16q0 140 -34 202q-36 66 -132 69q-172 0 -289 -140q0 -366 4 -583q0 -76 16 -154 h-204v8l8 690v12q1 60 -9 106q-10 50 -26 73.5t-32 37.5t-27 17z" />
<glyph unicode="n" horiz-adv-x="1202" d="M102 983q82 51 183 51q35 0 58 -13.5t33 -37t14 -55.5q2 -15 1 -30q0 -18 -2 -36l-10 -57q25 42 60 80t83 74t113 57.5t137 21.5q104 0 173.5 -73t72.5 -170v-24q0 -46 -2 -170q-1 -67 0 -134q0 -107 2 -215q4 -175 20 -252h-200q-5 37 -5 68q0 16 1 30l4 492v16 q0 140 -34 202q-36 66 -132 69q-172 0 -289 -140q0 -366 4 -583q0 -76 16 -154h-204v8l8 690v12q0 60 -9 106q-10 50 -25.5 73.5t-31 37.5t-26.5 17l-11 2z" />
<glyph unicode="o" d="M96 487q0 -16 1.5 -39.5t10.5 -76t25 -101t49 -104.5t77 -97t115 -68.5t158 -27.5q109 0 204 45t160 120.5t102.5 176.5t37.5 211q0 126 -35.5 226t-96.5 161t-138 93t-164 32q-145 0 -260.5 -71t-180.5 -197t-65 -283zM297 573q0 48 8 97t26.5 96.5t44.5 84.5t65.5 60 t86.5 23q127 0 216.5 -135.5t89.5 -337.5q0 -171 -71.5 -279t-174.5 -108q-125 0 -208 144.5t-83 354.5z" />
<glyph unicode="p" horiz-adv-x="1155" d="M109 946v37l20 13q20 12 61.5 25t85.5 13q72 0 94.5 -29t22.5 -94q140 123 283 123q75 0 141.5 -29t121.5 -86.5t87.5 -155.5t32.5 -224q0 -84 -19.5 -165t-59.5 -154t-96.5 -127.5t-136.5 -87t-174 -32.5q-84 0 -184 29q5 -368 8 -416q2 -28 11 -78h-203q0 31 1 232.5 t1 224.5l-2 797q0 84 -25.5 131t-70.5 53zM389 115h2q84 -29 205 -29q66 0 116 29t79 72t47 102t24 110.5t6 104.5q0 185 -83.5 290t-217.5 105q-99 0 -161 -45v-6q0 -46 -8.5 -260t-8.5 -363v-110z" />
<glyph unicode="q" horiz-adv-x="1128" d="M96 461q0 84 19 166t59.5 156.5t97 131t137 90t173.5 33.5q53 0 200.5 -16.5t192.5 -17.5q-15 -574 -15 -958q0 -299 9 -482q0 -22 4 -56h-197q0 26 1 225.5t1 227.5v150q-144 -138 -299 -138q-75 0 -141.5 28t-121.5 84t-87.5 153t-32.5 223zM287 496q0 -184 83 -285.5 t218 -101.5q110 0 190 65l-4 588q0 77 -12 135q-89 29 -203 29q-65 0 -115.5 -30t-79.5 -75.5t-47 -106t-24 -113t-6 -105.5z" />
<glyph unicode="r" horiz-adv-x="829" d="M106 946v37q82 51 183 51q57 0 77.5 -29.5t20.5 -86.5q0 -24 -6 -56l-10 -90q5 11 17.5 33.5t43 65.5t65.5 78t86.5 62t104.5 27q67 0 104 -35t37 -88q0 -41 -27.5 -72.5t-76.5 -31.5q-25 0 -39 4q-27 70 -94 70q-46 0 -83.5 -34t-60 -84.5t-38 -114t-21.5 -118 t-6 -100.5q0 -362 20 -434h-204q0 41 4 288.5t4 409.5q0 49 -5 89t-12.5 65t-18 44t-20 28t-20 14.5t-15.5 6.5t-10 1z" />
<glyph unicode="s" horiz-adv-x="851" d="M92 737q0 124 99 212.5t243 88.5q74 0 134 -13t85.5 -25t61.5 -33q8 -25 9 -63v-7q0 -35 -9 -73q-10 -42 -33 -64l-37 8q-21 65 -62.5 105.5t-81 53.5t-83.5 13q-79 0 -125.5 -37.5t-46.5 -91.5q0 -39 23 -71.5t60 -55.5t84.5 -47t97.5 -44.5t97.5 -50.5t84.5 -63 t60 -83.5t23 -110.5q0 -138 -101.5 -225t-264.5 -87q-119 0 -215.5 63.5t-96.5 147.5q0 37 21 72q12 -58 108 -111t185 -53q52 0 94 13t72 47t30 86q0 36 -28.5 67t-74 56t-100.5 50t-110 55.5t-100.5 66.5t-74 88.5t-28.5 115.5z" />
<glyph unicode="t" horiz-adv-x="772" d="M92 946l10 62q10 0 22.5 3t41.5 16.5t64.5 52.5t68.5 98h100l-24 -170h250q27 0 45 6t22 12l4 6q4 0 4 -39q0 -51 -45.5 -80.5t-111.5 -29.5q-18 0 -68 2t-69 2q-23 0 -29 -2l-2 -520q0 -56 5 -92t21 -69.5t49.5 -49t86.5 -15.5q60 0 121 20t69 38q12 -19 12 -43 q0 -65 -81.5 -123t-188.5 -58q-85 0 -140 21.5t-84 67.5t-39.5 102t-10.5 141q0 55 6 202t6 212q0 130 -21 158q-11 15 -23 27.5t-22.5 19.5t-19.5 12t-16 7t-10 3h-3z" />
<glyph unicode="u" horiz-adv-x="1204" d="M90 948v35q30 20 79 35.5t91 15.5q66 0 94 -33t28 -100v-48q0 -52 -1 -120l-2 -319v-17q-1 -141 31 -199q34 -62 129 -63q167 0 282 135q6 252 6 410q0 67 -8.5 124.5t-17.5 78.5q-15 32 -32.5 47.5t-43.5 21.5v35l23 11q23 12 62.5 24t72.5 12q85 0 107 -37t22 -172 v-516q0 -37 3.5 -68.5t8 -54.5t13.5 -42t16 -31t20 -21.5t21 -14t22.5 -8t22 -4.5t22 -2t19.5 -2v-36q-20 -14 -77.5 -33t-105.5 -19q-39 0 -68.5 14t-47.5 35.5t-29.5 53t-16 61.5t-6.5 66q-26 -42 -61 -80t-83 -73t-112.5 -56t-136.5 -21q-104 0 -172.5 73.5t-70.5 170.5 l4 277q1 57 1 104q0 78 -3 128q-5 80 -29 148q-10 29 -29 47.5t-33 22.5z" />
<glyph unicode="v" horiz-adv-x="1028" d="M20 983q25 19 77.5 35t92.5 16q68 0 97 -30t49 -105q14 -83 194 -590q30 -82 56 -133l14 52q14 52 27 85l161 426q29 68 29 129q0 58 -35 78v37q22 20 64.5 35.5t83.5 15.5q69 0 69 -69q0 -53 -51 -174l-289 -680l-47 -166l-73 18q-62 11 -96 56t-46 92l-184 577 q-20 64 -46.5 113.5t-48.5 75t-45 42.5t-33 21.5t-17 5.5z" />
<glyph unicode="w" horiz-adv-x="1703" d="M20 983q25 19 77.5 35t92.5 16q68 0 97 -30t49 -105q14 -83 194 -590q30 -82 56 -133l47 137l155 426q28 76 33 101q-57 87 -123 106l-2 37q25 19 77.5 35t92.5 16q68 0 97 -30t49 -105q14 -83 194 -590q30 -82 56 -133l14 52q14 52 27 85l161 426q27 67 27 138 q0 52 -33 69v37q24 21 66.5 36t81.5 15q68 0 68 -70q0 -60 -50 -173l-289 -680l-47 -166l-74 18q-43 8 -75.5 37t-46 56.5t-19.5 54.5l-180 563l-234 -563l-47 -166l-73 18q-62 11 -96 56t-46 92l-184 577q-20 64 -46.5 113.5t-48.5 75t-45 42.5t-33 21.5t-17 5.5z" />
<glyph unicode="x" horiz-adv-x="970" d="M20 0l390 481l-131 207q-32 48 -63.5 99.5t-43.5 71.5t-31.5 41.5t-41.5 30t-60 15.5l-2 37q67 51 141 51q36 0 62.5 -6t43 -14.5t32.5 -28t25 -35t26.5 -47t31.5 -53.5l123 -197l19 -41l24 41l125 158q43 51 43 96q0 26 -18 41v35q58 51 141 51q32 0 51 -16.5t19 -42.5 q0 -60 -48 -125t-276 -322l268 -413l91 -115h-252l-39 76l-174 270l-23 41l-9 -15q-8 -14 -20 -28l-202 -262l-47 -82h-175z" />
<glyph unicode="y" horiz-adv-x="1019" d="M10 983q25 19 77.5 35t92.5 16q68 0 98.5 -31.5t47.5 -103.5q22 -103 194 -590q28 -77 55 -133q10 46 43 137l162 426q29 68 29 129q0 58 -35 78v37q22 20 64.5 35.5t83.5 15.5q69 0 69 -69q0 -26 -9 -60t-20.5 -61t-21.5 -53l-418 -1004q-11 -28 -22.5 -55.5 t-22.5 -52.5t-23 -48.5t-24.5 -44t-26.5 -38.5t-30 -33.5t-35 -27t-40 -19.5t-46.5 -12.5t-54.5 -4.5q-86 0 -129 49t-43 127q0 29 2 43q10 -25 54 -40t91 -15q164 0 211 115l94 225q7 18 17 33l10 14q-39 11 -73 42t-44 67l-184 577q-20 64 -46.5 113.5t-48.5 75t-45 42.5 t-33.5 21.5t-17.5 5.5z" />
<glyph unicode="z" horiz-adv-x="954" d="M51 39l21 20q20 20 34 41l457 723q17 26 37 46l21 20h-287q-90 0 -149.5 -31t-66.5 -78h-38q-10 12 -14 54q-1 12 -1 27q-1 33 7 71q10 56 41 88l282 -12h475l7 -39l-21 -20q-22 -20 -35 -42l-456 -731q-14 -23 -32 -40l-18 -17h322q89 0 149 31t66 77h39q9 -13 13 -51 l2 -24q0 -30 -8 -66q-10 -52 -40 -86h-283h-518z" />
<glyph unicode="{" horiz-adv-x="681" d="M37 578v45q153 0 153 579q0 86 30.5 155t78 109.5t101.5 62t106 21.5q72 0 125 -47q-119 -2 -189.5 -86t-70.5 -233q0 -269 -58.5 -431t-117.5 -169l13 -8q13 -8 32.5 -29.5t42.5 -72t42.5 -122t32.5 -194.5t13 -275q0 -40 1 -67t5.5 -62.5t13 -58.5t24 -48t37 -39.5 t54 -24t74.5 -9.5q13 0 51 4q-68 -80 -174 -80q-105 0 -186 79t-81 212q0 232 -12.5 392t-35.5 241t-47.5 115t-57.5 41z" />
<glyph unicode="|" horiz-adv-x="163" d="M0 -520v2068h164v-2068h-164z" />
<glyph unicode="}" horiz-adv-x="681" d="M51 -422q68 -80 174 -80q105 0 186 79t81 212q0 232 12.5 392t35.5 241t47.5 115t57.5 41v45q-153 0 -153 579q0 86 -30.5 155t-78 109.5t-101.5 62t-106 21.5q-72 0 -125 -47q119 -2 189.5 -86t70.5 -233q0 -269 58.5 -431t117.5 -169l-13 -8q-13 -8 -32.5 -29.5 t-42.5 -72t-42.5 -122t-32.5 -194.5t-13 -275q0 -40 -1 -67t-5.5 -62.5t-13 -58.5t-24 -48t-37 -39.5t-54 -24t-74.5 -9.5q-13 0 -51 4z" />
<glyph unicode="~" horiz-adv-x="1079" d="M184 535q25 18 37 25.5t39.5 17.5t52.5 8q34 -2 125.5 -34t159.5 -36q99 -6 176.5 35.5t95.5 128.5q-81 -59 -151 -55q-36 4 -130.5 34t-146.5 33q-95 7 -168.5 -32t-89.5 -125z" />
<glyph unicode="&#xa1;" horiz-adv-x="540" d="M126.5 -101.5q-4.5 30.5 1 79t13.5 93t18.5 111.5t14.5 123l57 723h60l74 -999q4 -49 16 -85t23 -48l10 -11v-47l-19 -11q-19 -11 -51.5 -22.5t-60.5 -11.5q-53 0 -86.5 11.5t-49.5 37.5t-20.5 56.5zM154 1255q0 46 32 78.5t76 32.5q46 0 78.5 -32t32.5 -79 q0 -44 -32.5 -76t-78.5 -32q-44 0 -76 32t-32 76z" />
<glyph unicode="&#xa2;" horiz-adv-x="1003" d="M113 461q0 153 51.5 279.5t149 205.5t223.5 90q-1 36 -5.5 104t-5.5 83q48 10 58 10q19 0 30.5 -7.5t15.5 -27t5 -33.5t-0.5 -47.5t-1.5 -48.5v-33q135 -12 206.5 -74.5t53.5 -158.5q-33 39 -107 67t-155 31q-6 -480 -6 -637v-135q84 5 165.5 53.5t133.5 126.5l4 -17 q4 -16 4 -32q0 -96 -89.5 -173.5t-215.5 -102.5l8 -207h-100q0 135 2 196h-5q-84 0 -157.5 28.5t-133 85.5t-94 153t-34.5 221zM295 528q0 -91 25.5 -171.5t81.5 -141.5t135 -80q6 611 4 762q-95 -13 -148 -72q-47 -51 -72.5 -129t-25.5 -168z" />
<glyph unicode="&#xa3;" horiz-adv-x="1124" d="M74 551l12 133q0 4 137 4q1 97 1.5 163.5t6.5 127t21 121.5q11 47 28.5 92t47 97.5t73 96t99.5 80t134 57.5t169 21q62 0 125 -20t110 -63.5t47 -100.5q0 -67 -37.5 -102t-82.5 -35q-47 0 -80 30q2 0 5 13.5t3 29.5q0 48 -51 89.5t-135 41.5q-111 0 -192 -97t-93 -230 q-5 -51 -8 -101t-4 -85.5t-3 -105t-4 -124.5q132 -4 154 -4h102q48 0 85.5 1t63 5t34.5 10q-5 -31 -17.5 -54t-30 -37.5t-40 -25t-48 -14.5t-53.5 -6.5t-56.5 -1.5t-57.5 0h-142q-5 -164 -46.5 -381.5t-84.5 -279.5q238 -46 404 -46q174 0 314 31.5t196 91.5q6 -27 6 -53 q0 -219 -410 -219q-108 0 -298.5 27.5t-399.5 62.5q59 129 96 343.5t47 424.5h-90q-25 0 -57 -8z" />
<glyph unicode="&#xa4;" horiz-adv-x="1183" d="M25 731l24 131q0 -6 127 -6q56 236 228 376t413 140q189 0 272 -68t9 -174q-2 24 -38.5 51t-108.5 47.5t-158 20.5q-174 0 -297 -112.5t-160 -282.5h385h102q48 0 85.5 1t63 5t34.5 10q-5 -31 -17.5 -54t-30 -37.5t-40.5 -25t-48 -14.5t-53.5 -6.5t-57 -1.5t-57.5 0h-378 q0 -71 10 -164h264h102q48 0 85.5 1t63 5t34.5 11q-5 -31 -17.5 -54.5t-30 -38t-40 -24.5t-48 -14.5t-53.5 -7t-56.5 -1.5t-57.5 0h-222q105 -354 461 -354q30 0 74.5 8.5t108.5 37.5t106 73q3 -118 -92.5 -178t-259.5 -60q-236 0 -386.5 127.5t-197.5 347.5h-106 q-29 0 -37 -2l20 131q28 -4 105 -4q-2 25 -2 74q0 60 4 88h-95q-28 0 -36 -2z" />
<glyph unicode="&#xa5;" horiz-adv-x="1064" d="M10 1313l15 35q59 28 143 28q87 0 121 -37q46 -113 144 -303t153 -278l10 26q11 26 25 50l170 301q26 43 26 94q0 43 -24 84l14 35q61 28 115 28q50 0 108 -28q1 -34 -38.5 -123.5t-80.5 -157.5l-225 -360h94q45 0 81 1t61 5t34 10q-4 -24 -13 -43t-21.5 -33t-28.5 -24.5 t-34.5 -17t-39 -11t-42.5 -6.5t-44.5 -3t-44.5 -1h-45q-12 -168 -12 -185h115q55 0 98.5 1t73 5t38.5 11q-5 -31 -18.5 -54.5t-33.5 -38t-45 -24.5t-52.5 -14.5t-58 -7t-60 -1.5t-57.5 0q0 -170 16 -276h-198v33q0 54 1 133t1 110q-99 3 -209 3q-29 0 -37 -3v132 q0 -9 246 -9v185q-99 2 -209 2q-29 0 -37 -2v131q0 -4 186 -8l-180 317q-27 48 -57.5 105t-43 79.5t-30 48t-32.5 36.5t-38 20z" />
<glyph unicode="&#xa7;" horiz-adv-x="860" d="M102 -311l4 37q58 -52 135.5 -83t145.5 -30h19q17 160 -10.5 359.5t-131.5 570.5q-102 370 -102 571q0 175 99.5 294.5t250.5 119.5q79 0 143 -19.5t100 -49t54.5 -60t17.5 -56.5l-4 -36q-57 51 -134.5 82t-145.5 30h-21q-15 -162 12.5 -361.5t131.5 -568.5 q102 -368 102 -571q0 -175 -99.5 -294.5t-250.5 -119.5q-79 0 -142.5 19.5t-99.5 49t-55 60t-19 56.5zM281 1081q0 -76 23.5 -184t94.5 -387q28 -113 42 -171t34.5 -154t27 -157t11 -137t-4 -139t-26.5 -121q169 62 166 320q0 53 -14.5 134t-33.5 158.5t-71 278.5 q-41 164 -61 255t-40 217t-15.5 224t30.5 183q-166 -63 -163 -320z" />
<glyph unicode="&#xa8;" horiz-adv-x="786" d="M106 1313q0 46 31 79t72 33t71.5 -33t30.5 -79q0 -47 -30 -80t-72 -33t-72.5 33t-30.5 80zM483 1313q0 46 30.5 79t72.5 33q41 0 71.5 -33t30.5 -79q0 -47 -30 -80t-72 -33t-72.5 32.5t-30.5 80.5z" />
<glyph unicode="&#xa9;" horiz-adv-x="1617" d="M113 618q0 212 92.5 380.5t263.5 265t391 96.5q186 0 333.5 -81.5t229.5 -228t82 -331.5q0 -213 -89.5 -382.5t-256.5 -266.5t-383 -97q-291 0 -477 181.5t-186 463.5zM244 664q0 -123 44 -231t120.5 -185t184 -121.5t228.5 -44.5q112 0 214 44.5t177.5 121.5t120.5 188 t45 236q0 255 -157.5 419t-403.5 164q-116 0 -221.5 -44.5t-183 -121.5t-123 -188t-45.5 -237zM473 643q0 173 100 295.5t258 122.5q122 0 193.5 -56t54.5 -135l-14 12q-14 11 -39 25t-72 25.5t-102 11.5q-41 0 -81.5 -18t-68.5 -45q-71 -71 -71 -197q0 -104 57.5 -179 t163.5 -75q66 0 132.5 35t111.5 98l6 -23q6 -22 6 -34q0 -82 -96.5 -142.5t-210.5 -60.5q-139 0 -233.5 85.5t-94.5 254.5z" />
<glyph unicode="&#xaa;" horiz-adv-x="858" />
<glyph unicode="&#xab;" horiz-adv-x="1302" d="M127 506l41 41l268 319q46 56 90 86t78.5 32.5t58.5 -5t44 -23.5q-18 -6 -42.5 -27t-39.5 -39l-15 -18l-227 -303q-16 -21 -42 -42l-26 -21l26 -21q26 -21 42 -43l227 -303l15 -17q15 -18 39.5 -39t42.5 -28q-20 -16 -44 -23.5t-58.5 -4.5t-78.5 32.5t-90 85.5l-268 320z M582 506l41 41l268 319q46 56 90 86t78 32.5t58 -5t44 -23.5q-18 -6 -42 -27t-39 -39l-15 -18l-227 -303q-16 -21 -42 -42l-26 -21l26 -21q26 -21 42 -43l227 -303l15 -17q15 -18 39 -39t42 -28q-20 -16 -44 -23.5t-58 -4.5t-78 32.5t-90 85.5l-268 320z" />
<glyph unicode="&#xac;" horiz-adv-x="1095" />
<glyph unicode="&#xad;" horiz-adv-x="618" d="M59 436v131q0 -8 222 -8h102q48 0 85 1t62.5 5t34.5 10q-5 -31 -17.5 -54t-30 -37.5t-40 -25t-48 -14.5t-53.5 -6.5t-56.5 -1.5t-57.5 0q-27 0 -90 1t-76 1q-28 0 -37 -2z" />
<glyph unicode="&#xae;" horiz-adv-x="1617" d="M113 627q0 158 54 295t151 235.5t237 154.5t305 56q186 0 333.5 -81.5t229.5 -228t82 -331.5q0 -213 -89.5 -382t-256.5 -266t-383 -97q-291 0 -477 181t-186 464zM244 672q0 -123 44 -231t120.5 -185t184 -121.5t228.5 -44.5q112 0 214 44.5t177.5 121.5t120.5 188 t45 236q0 255 -157.5 419.5t-403.5 164.5q-156 0 -286.5 -75.5t-208.5 -212t-78 -304.5zM565 965v43q79 41 142 41q77 0 77 -78q2 -14 -2 -53l-1 -10l-1 -9q35 60 89 109t120 49q56 0 82.5 -28t26.5 -64q0 -71 -94 -99q-9 26 -28.5 40t-39.5 14q-62 0 -100.5 -51.5t-49 -129 t-6.5 -162.5t22 -157t40 -107h-219q14 152 14 486q1 46 -6 79.5t-16 49.5t-21 25t-18 10.5t-11 1.5z" />
<glyph unicode="&#xaf;" horiz-adv-x="686" d="M100 1225v131q0 -8 222 -8h102q48 0 85 1t62.5 5t34.5 10q-5 -31 -17.5 -54t-30 -37.5t-40 -25t-48 -14.5t-53.5 -6.5t-56.5 -1.5t-57.5 0q-27 0 -90 1t-76 1q-28 0 -37 -2z" />
<glyph unicode="&#xb0;" horiz-adv-x="817" d="M55 1176q0 141 100.5 240.5t243.5 99.5q142 0 241 -99.5t99 -240.5q0 -143 -99 -244t-241 -101q-143 0 -243.5 101t-100.5 244zM172 1176q0 -92 66.5 -159t158.5 -67q96 0 161 66.5t65 159.5q0 97 -64.5 161t-161.5 64q-93 0 -159 -64.5t-66 -160.5z" />
<glyph unicode="&#xb1;" horiz-adv-x="915" />
<glyph unicode="&#xb2;" horiz-adv-x="917" d="M82 0h596q93 0 130.5 34t37.5 83q0 26 -6 47q-19 -19 -54.5 -22t-189.5 -3h-350l40 33q39 32 99 86t129 131.5t129 160t99.5 180t39.5 183.5q0 56 -20 106t-61.5 92.5t-115 67.5t-169.5 25q-85 0 -159 -21.5t-122.5 -65t-48.5 -99.5q0 -63 55 -83.5t101 23.5v15 q0 50 45 89.5t108 39.5q90 0 135 -73t45 -179q0 -92 -50.5 -203.5t-123 -205.5t-144.5 -173.5t-123 -128.5l-52 -49v-90z" />
<glyph unicode="&#xb3;" horiz-adv-x="901" d="M41 -80q32 -4 53 -4q83 0 163 19t154.5 59t122 113t50.5 169q0 52 -9.5 95t-23.5 72t-38 52.5t-44.5 36.5t-51.5 23.5t-51 15t-51 9.5l23 55l4 2q91 42 151 119t60 159q0 45 -15 85.5t-54.5 71t-98.5 30.5q-66 0 -113 -39.5t-41 -104.5q-40 -30 -75 -29t-58.5 26.5 t-23.5 62.5q0 79 94 132.5t221 53.5q93 0 165.5 -23t114.5 -61.5t63.5 -82.5t21.5 -91q0 -89 -67 -166.5t-185 -138.5q47 -7 83.5 -17.5t78.5 -33.5t70 -56.5t46.5 -89.5t18.5 -129q0 -100 -41 -183t-107 -137.5t-152.5 -93t-174 -55t-174.5 -16.5q-33 0 -57.5 14t-34 31 t-13.5 31z" />
<glyph unicode="&#xb4;" horiz-adv-x="692" d="M139 1190q52 16 91.5 52.5t61.5 76.5t42.5 77.5t48.5 62t66 24.5h122l-79 -140q-109 -186 -277 -186q-23 0 -49.5 13.5t-26.5 19.5z" />
<glyph unicode="&#xb6;" horiz-adv-x="1273" d="M117 762q0 160 71.5 296t194 215t266.5 79h2h221h102q49 0 86 1t62.5 5t34.5 10q-18 -115 -147 -133q-2 -21 -2 -66q0 -7 -2 -126.5t-4 -308t-3 -349.5q-1 -147 5 -514l6 -367h-101q5 597 7 852t0 496.5t-9 376.5h-90q-2 -19 -2 -60q0 -8 -1.5 -126.5t-3.5 -308 t-3 -349.5q-1 -147 5 -514l5 -367h-100q4 452 4 594q0 60 4 86q-52 -19 -102 -22q-102 -8 -197.5 41t-163 133.5t-107 197t-38.5 228.5z" />
<glyph unicode="&#xb7;" horiz-adv-x="528" d="M145 502q0 44 32.5 76t78.5 32q44 0 76.5 -32t32.5 -76q0 -46 -32 -78.5t-77 -32.5q-46 0 -78.5 32.5t-32.5 78.5z" />
<glyph unicode="&#xb8;" horiz-adv-x="823" d="M205 -377q0 24 8 45q45 -43 145 -43q49 0 82 21.5t33 56.5q0 26 -28.5 45t-62.5 29.5t-62.5 35t-28.5 60.5q0 70 78 113l43 2q-15 -29 -15 -60q0 -16 20.5 -26.5t50.5 -19t59.5 -21.5t50 -41.5t20.5 -71.5q0 -94 -68.5 -161.5t-164.5 -67.5q-73 0 -116.5 28t-43.5 76z " />
<glyph unicode="&#xb9;" horiz-adv-x="522" />
<glyph unicode="&#xba;" horiz-adv-x="843" />
<glyph unicode="&#xbb;" horiz-adv-x="1316" d="M129 55q20 -16 44 -23.5t58 -4.5t78 32.5t90 85.5l269 320l41 41l-41 41l-269 319q-46 56 -90 86t-78 32.5t-58 -5t-44 -23.5q18 -6 42 -27t39 -39l15 -18l228 -303q15 -21 41 -42l26 -21l-26 -21q-26 -21 -41 -43l-228 -303l-15 -17q-15 -18 -39 -39t-42 -28zM584 55 q20 -16 44 -23.5t58 -4.5t78 32.5t90 85.5l268 320l41 41l-41 41l-268 319q-46 56 -90 86t-78 32.5t-58 -5t-44 -23.5q18 -6 42 -27t39 -39l15 -18l227 -303q16 -21 42 -42l26 -21l-26 -21q-26 -21 -42 -43l-227 -303l-15 -17q-15 -18 -39 -39t-42 -28z" />
<glyph unicode="&#xbc;" horiz-adv-x="1267" />
<glyph unicode="&#xbd;" horiz-adv-x="1439" />
<glyph unicode="&#xbe;" horiz-adv-x="2969" d="M2006 233q42 129 159.5 347.5t243 403t185.5 224.5h125l-4 -86l-3 -68q-3 -68 -3 -89v-623q112 0 154 4t59 21q37 -162 -162 -164h-49q0 -150 2 -217q0 -76 16 -154h-202v8l2 363h-496zM2187 342h342l4 506q2 80 14 156q-63 -70 -182 -286t-178 -376zM895 0 q526 751 711.5 1026t189.5 324q40 30 82 30q61 0 61 -41q0 -32 -39.5 -91.5t-56.5 -78.5q-2 -3 -185.5 -262t-371 -532t-246.5 -375h-145zM41 -80q32 -4 53 -4q83 0 163 19t154.5 59t122 113t50.5 169q0 52 -9.5 95t-23.5 72t-38 52.5t-44.5 36.5t-51.5 23.5t-51 15t-51 9.5 l23 55l4 2q91 42 151 119t60 159q0 45 -15 85.5t-54.5 71t-98.5 30.5q-66 0 -113 -39.5t-41 -104.5q-40 -30 -75 -29t-58.5 26.5t-23.5 62.5q0 79 94 132.5t221 53.5q93 0 165.5 -23t114.5 -61.5t63.5 -82.5t21.5 -91q0 -89 -67 -166.5t-185 -138.5q47 -7 83.5 -17.5 t78.5 -33.5t70 -56.5t46.5 -89.5t18.5 -129q0 -100 -41 -183t-107 -137.5t-152.5 -93t-174 -55t-174.5 -16.5q-33 0 -57.5 14t-34 31t-13.5 31z" />
<glyph unicode="&#xbf;" horiz-adv-x="849" d="M86 172q0 88 47 176t114 159t133.5 138.5t113.5 137t47 130.5q0 55 -47 93l41 22q143 -66 143 -182q0 -81 -43 -163.5t-104 -151t-122 -134t-104 -136.5t-43 -136q0 -225 211 -225q63 0 111.5 38.5t48.5 108.5q0 24 -10 57q28 43 88 43q54 0 80 -32.5t26 -71.5 q0 -115 -100.5 -182.5t-249.5 -67.5q-179 0 -280 105t-101 274zM426 1255q0 46 32 78.5t77 32.5q46 0 78 -32.5t32 -78.5q0 -44 -32 -76t-78 -32q-45 0 -77 32t-32 76z" />
<glyph unicode="&#xc0;" horiz-adv-x="1208" d="M10 0l465 1221q12 39 31 68.5t38 45.5t45 27.5t44 15.5t45 9t39 8q11 -57 49 -174l360 -1057q25 -87 72 -164h-248q-5 46 -14 70l-137 401h-475l-156 -444q-2 -7 -3.5 -16t-2.5 -11h-152zM279 1737l79 -99q66 -81 133 -120t166 -39q57 0 86 37q-52 16 -91.5 45t-62 58.5 t-44 56.5t-49.5 44t-66 17h-151zM358 569h406l-199 584z" />
<glyph unicode="&#xc1;" horiz-adv-x="1208" d="M10 0l465 1221q12 39 31 68.5t38 45.5t45 27.5t44 15.5t45 9t39 8q11 -57 49 -174l360 -1057q25 -87 72 -164h-248q-5 46 -14 70l-137 401h-475l-156 -444q-2 -7 -3.5 -16t-2.5 -11h-152zM358 569h406l-199 584zM539 1516q52 16 91.5 45t62 58.5t44 56.5t49.5 44t66 17 h152l-80 -99q-66 -81 -133 -120t-166 -39q-57 0 -86 37z" />
<glyph unicode="&#xc2;" horiz-adv-x="1208" d="M10 0l465 1221q12 39 31 68.5t38 45.5t45 27.5t44 15.5t45 9t39 8q11 -57 49 -174l360 -1057q25 -87 72 -164h-248q-5 46 -14 70l-137 401h-475l-156 -444q-2 -7 -3.5 -16t-2.5 -11h-152zM256 1489q37 6 78.5 33t76 61t67 67.5t62.5 56t52 22.5h39h18q27 0 59 -22.5 t63.5 -56t64.5 -67.5t72.5 -61t76.5 -33q0 -6 -30 -16.5t-56 -10.5q-110 0 -174.5 48t-103.5 143q-22 -46 -43 -76.5t-53 -59t-77.5 -42t-105.5 -13.5q-26 0 -56 10.5t-30 16.5zM358 569h406l-199 584z" />
<glyph unicode="&#xc3;" horiz-adv-x="1208" d="M10 0l465 1221q12 39 31 68.5t38 45.5t45 27.5t44 15.5t45 9t39 8q11 -57 49 -174l360 -1057q25 -87 72 -164h-248q-5 46 -14 70l-137 401h-475l-156 -444q-2 -7 -3.5 -16t-2.5 -11h-152zM201 1522q12 8 30 18t36 18.5t41 14.5t46 6q42 0 106 -19.5t143 -39t159 -19.5 q115 0 202.5 45.5t110.5 134.5q-32 -18 -50.5 -27.5t-56.5 -20.5t-73 -11q-55 0 -191.5 38t-207.5 38q-73 0 -133 -17.5t-105 -58t-57 -100.5zM358 569h406l-199 584z" />
<glyph unicode="&#xc4;" horiz-adv-x="1208" d="M10 0l465 1221q12 39 31 68.5t38 45.5t45 27.5t44 15.5t45 9t39 8q11 -57 49 -174l360 -1057q25 -87 72 -164h-248q-5 46 -14 70l-137 401h-475l-156 -444q-2 -7 -3.5 -16t-2.5 -11h-152zM270 1599q0 46 30.5 79.5t72.5 33.5q41 0 71.5 -33.5t30.5 -79.5q0 -47 -30 -79.5 t-72 -32.5t-72.5 32.5t-30.5 79.5zM358 569h406l-199 584zM750 1599q0 46 30.5 79.5t71.5 33.5t71.5 -33.5t30.5 -79.5q0 -47 -30 -79.5t-72 -32.5t-72 32.5t-30 79.5z" />
<glyph unicode="&#xc5;" horiz-adv-x="1208" d="M10 0l465 1221q12 39 31 68.5t38 45.5t45 27.5t44 15.5t45 9t39 8q11 -57 49 -174l360 -1057q25 -87 72 -164h-248q-5 46 -14 70l-137 401h-475l-156 -444q-2 -7 -3.5 -16t-2.5 -11h-152zM358 569h406l-199 584zM434 1616q0 -80 46.5 -125t109.5 -45q85 0 143.5 53.5 t58.5 132.5q0 77 -47 122.5t-112 45.5q-85 0 -142 -51t-57 -133zM516 1639q0 53 26.5 78.5t63.5 25.5q43 0 72.5 -33.5t29.5 -97.5q0 -55 -28 -82t-64 -27q-41 0 -70.5 36t-29.5 100z" />
<glyph unicode="&#xc6;" horiz-adv-x="1560" d="M-8 0l629 1202q10 28 10 48.5t-5.5 33t-19.5 33.5l15 31h411l350 6q23 -24 34 -75.5t8 -96t-15 -56.5h-39q-9 47 -69 78.5t-146 34.5l-174 6q-14 -243 -14 -500h321q28 0 47 6.5t24 13.5l5 7q4 0 4 -41q0 -24 -7 -42.5t-16.5 -30t-27.5 -20t-30.5 -12.5t-36 -6t-33.5 -2 h-33q-2 0 -50.5 1t-91 2t-77.5 0q-2 -202 6 -480q0 -4 4 -12h389q28 0 47 6.5t24 13.5l5 7q4 0 4 -41q0 -33 -13.5 -56t-30 -34.5t-46 -17t-47 -6.5t-47.5 -1h-498q2 35 2 96v375h-383l-217 -430q-3 -5 -5.5 -14t-4 -17t-2.5 -10h-160zM430 569h334v521q0 127 2 170 l-41 -109z" />
<glyph unicode="&#xc7;" horiz-adv-x="1267" d="M106 645q0 211 81.5 376.5t231 258t343.5 92.5q131 0 248 -50.5t151 -119.5q0 -36 -40 -100.5t-89 -85.5l-33 26q0 23 -15.5 55.5t-44.5 67.5t-82.5 59.5t-119.5 24.5q-82 0 -150 -28t-114.5 -76.5t-78.5 -115t-47 -141t-15 -155.5q0 -122 29 -232t84 -197.5t144.5 -139 t201.5 -51.5q99 0 206.5 52t159.5 146q8 -16 8 -43q0 -123 -120 -203t-302 -90q-8 -27 -8 -47q0 -16 20.5 -26.5t50.5 -19t59.5 -21.5t50 -41.5t20.5 -71.5q0 -94 -68.5 -161.5t-165.5 -67.5q-73 0 -116 28t-43 76q0 24 8 45q45 -43 145 -43q49 0 82 21.5t33 56.5 q0 26 -28.5 45t-62.5 29.5t-62.5 35t-28.5 60.5q0 61 57 100q-138 3 -249 55t-183 142.5t-110 211.5t-38 263z" />
<glyph unicode="&#xc8;" horiz-adv-x="985" d="M135 1313l15 35h307l350 6q23 -24 33.5 -75.5t7.5 -96t-14 -56.5h-39q-10 47 -70 78.5t-145 34.5l-174 6q-15 -223 -15 -500h322q28 0 46.5 6.5t23.5 13.5l5 7l2 -12q3 -13 3 -29q0 -24 -7 -42.5t-16.5 -30t-27.5 -20t-30.5 -12.5t-36 -6t-33.5 -2h-34q-2 0 -50.5 1 t-91 2t-77.5 0q-2 -202 6 -480q0 -4 4 -12h389q28 0 47 6.5t24 13.5l5 7q4 0 4 -41q0 -28 -8 -48.5t-24.5 -32.5t-32 -19.5t-40.5 -10.5t-39.5 -3.5t-39.5 -0.5h-498l2 139v946q0 46 -3.5 82.5t-8.5 58t-12 39t-14.5 27t-14.5 21.5zM207 1737l80 -99q66 -81 132.5 -120 t166.5 -39q55 0 86 37q-44 14 -79.5 37t-56 46.5t-41 49t-37 44.5t-42.5 31.5t-58 12.5h-151z" />
<glyph unicode="&#xc9;" horiz-adv-x="985" d="M135 1313l15 35h307l350 6q23 -24 33.5 -75.5t7.5 -96t-14 -56.5h-39q-10 47 -70 78.5t-145 34.5l-174 6q-15 -223 -15 -500h322q28 0 46.5 6.5t23.5 13.5l5 7l2 -12q3 -13 3 -29q0 -24 -7 -42.5t-16.5 -30t-27.5 -20t-30.5 -12.5t-36 -6t-33.5 -2h-34q-2 0 -50.5 1 t-91 2t-77.5 0q-2 -202 6 -480q0 -4 4 -12h389q28 0 47 6.5t24 13.5l5 7q4 0 4 -41q0 -28 -8 -48.5t-24.5 -32.5t-32 -19.5t-40.5 -10.5t-39.5 -3.5t-39.5 -0.5h-498l2 139v946q0 46 -3.5 82.5t-8.5 58t-12 39t-14.5 27t-14.5 21.5zM334 1516q52 16 91.5 45t62 58.5t44 56.5 t49.5 44t66 17h152l-80 -99q-66 -81 -133 -120t-166 -39q-57 0 -86 37z" />
<glyph unicode="&#xca;" horiz-adv-x="985" d="M137 1313l15 35h307l350 6q23 -24 33.5 -75.5t7.5 -96t-14 -56.5h-39q-10 47 -70 78.5t-145 34.5l-174 6q-15 -223 -15 -500h322q28 0 47 6.5t24 13.5l5 7q4 0 4 -41q0 -24 -7 -42.5t-16.5 -30t-27.5 -20t-30.5 -12.5t-36 -6t-33.5 -2h-34q-2 0 -50.5 1t-91 2t-77.5 0 q-2 -202 6 -480q0 -4 4 -12h390q28 0 46.5 6.5t23.5 13.5l5 7q4 0 4 -41q0 -28 -8 -48.5t-24.5 -32.5t-32 -19.5t-40.5 -10.5t-39.5 -3.5t-39.5 -0.5h-498q4 51 3 95l-1 44v946q0 46 -3.5 82.5t-8.5 58t-12 39t-14.5 27t-14.5 21.5zM139 1489q37 6 78.5 33t76 61t67 67.5 t62.5 56t52 22.5h39h18q27 0 59 -22.5t63.5 -56t64.5 -67.5t72.5 -61t76.5 -33q0 -6 -30 -16.5t-56 -10.5q-110 0 -174.5 48t-103.5 143q-44 -95 -104.5 -143t-174.5 -48q-26 0 -56 10.5t-30 16.5z" />
<glyph unicode="&#xcb;" horiz-adv-x="985" d="M135 1313l15 35h307l350 6q23 -24 33.5 -75.5t7.5 -96t-14 -56.5h-39q-10 47 -70 78.5t-145 34.5l-174 6q-15 -223 -15 -500h322q28 0 46.5 6.5t23.5 13.5l5 7l2 -12q3 -13 3 -29q0 -24 -7 -42.5t-16.5 -30t-27.5 -20t-30.5 -12.5t-36 -6t-33.5 -2h-34q-2 0 -50.5 1 t-91 2t-77.5 0q-2 -202 6 -480q0 -4 4 -12h389q28 0 47 6.5t24 13.5l5 7q4 0 4 -41q0 -28 -8 -48.5t-24.5 -32.5t-32 -19.5t-40.5 -10.5t-39.5 -3.5t-39.5 -0.5h-498l2 139v946q0 46 -3.5 82.5t-8.5 58t-12 39t-14.5 27t-14.5 21.5zM160 1599q0 46 30.5 79.5t71.5 33.5 q42 0 72.5 -33.5t30.5 -79.5q0 -47 -30.5 -79.5t-72.5 -32.5t-72 32.5t-30 79.5zM639 1599q0 46 30.5 79.5t71.5 33.5q42 0 72.5 -33.5t30.5 -79.5q0 -47 -30.5 -79.5t-72.5 -32.5t-72 32.5t-30 79.5z" />
<glyph unicode="&#xcc;" horiz-adv-x="661" d="M37 1737l80 -99q66 -81 132.5 -120t166.5 -39q55 0 86 37q-44 14 -79.5 37t-56 46.5t-41 49t-37 44.5t-42.5 31.5t-58 12.5h-151zM180 1315l15 35l46 13q46 13 95 13q65 0 117 -24q-21 -439 -21 -811q0 -494 23 -541h-226q4 136 4 1090q0 57 -5 98t-13 61.5t-17 38 t-18 27.5z" />
<glyph unicode="&#xcd;" horiz-adv-x="661" d="M158 1516q52 16 91.5 45t62 58.5t44 56.5t49.5 44t66 17h152l-80 -99q-66 -81 -133 -120t-166 -39q-57 0 -86 37zM180 1315l15 35l46 13q46 13 95 13q65 0 117 -24q-21 -439 -21 -811q0 -494 23 -541h-226q4 136 4 1090q0 57 -5 98t-13 61.5t-17 38t-18 27.5z" />
<glyph unicode="&#xce;" horiz-adv-x="661" d="M-31 1489q37 6 78.5 33t76 61t67 67.5t62.5 56t52 22.5h39h18q27 0 59 -22.5t63.5 -56t64.5 -67.5t72.5 -61t76.5 -33q0 -6 -30 -16.5t-56 -10.5q-110 0 -174.5 48t-103.5 143q-44 -95 -104.5 -143t-174.5 -48q-26 0 -56 10.5t-30 16.5zM180 1315l15 35l46 13 q46 13 95 13q65 0 117 -24q-21 -439 -21 -811q0 -494 23 -541h-226q4 136 4 1090q0 57 -5 98t-13 61.5t-17 38t-18 27.5z" />
<glyph unicode="&#xcf;" horiz-adv-x="661" d="M33 1599q0 46 30.5 79.5t71.5 33.5q42 0 72.5 -33.5t30.5 -79.5q0 -47 -30.5 -79.5t-72.5 -32.5t-72 32.5t-30 79.5zM180 1315l15 35l46 13q46 13 95 13q65 0 117 -24q-21 -439 -21 -811q0 -494 23 -541h-226q4 136 4 1090q0 57 -5 98t-13 61.5t-17 38t-18 27.5z M410 1599q0 46 30.5 79.5t71.5 33.5t71.5 -33.5t30.5 -79.5q0 -47 -30 -79.5t-72 -32.5t-72 32.5t-30 79.5z" />
<glyph unicode="&#xd1;" horiz-adv-x="1538" d="M182 1315l15 35q79 32 122 20l807 -928q27 -29 52 -80l24 -51l-7 51q-7 51 -7 78q4 0 4 654q0 159 -53 221l14 35q36 24 102 24q63 0 93 -22q-25 -525 -25 -961q0 -231 10 -391h-112l-779 891l-38 52q-37 52 -46 75q7 -40 7 -90t-2.5 -151t-2.5 -152q0 -456 21 -625h-148 v33q3 266 3 731v330q0 83 -11 130.5t-43 90.5zM334 1522q12 8 30 18t36 18.5t41 14.5t46 6q42 0 106 -19.5t143 -39t159 -19.5q115 0 202.5 45.5t110.5 134.5q-32 -18 -50.5 -27.5t-56.5 -20.5t-73 -11q-55 0 -191.5 38t-207.5 38q-73 0 -133 -17.5t-105 -58t-57 -100.5z " />
<glyph unicode="&#xd2;" horiz-adv-x="1392" d="M100 651q0 -129 29.5 -240.5t80 -190.5t117.5 -135.5t141.5 -84t152.5 -27.5q198 0 349 96.5t231.5 260.5t84.5 368q0 162 -43 291.5t-118 212t-173 126.5t-211 44q-136 0 -255 -53.5t-204 -147.5t-133.5 -229t-48.5 -291zM322 717q0 144 45 265t125 192t178 71 q104 0 194.5 -82.5t144.5 -225t54 -308.5q0 -145 -44.5 -267t-124 -194t-175.5 -72q-108 0 -200.5 89t-144.5 231.5t-52 300.5zM397 1737l80 -99q66 -81 133 -120t166 -39q57 0 86 37q-52 16 -91.5 45t-62 58.5t-44 56.5t-49.5 44t-66 17h-152z" />
<glyph unicode="&#xd3;" horiz-adv-x="1392" d="M100 651q0 -129 29.5 -240.5t80 -190.5t117.5 -135.5t141.5 -84t152.5 -27.5q198 0 349 96.5t231.5 260.5t84.5 368q0 162 -43 291.5t-118 212t-173 126.5t-211 44q-136 0 -255 -53.5t-204 -147.5t-133.5 -229t-48.5 -291zM322 717q0 144 45 265t125 192t178 71 q104 0 194.5 -82.5t144.5 -225t54 -308.5q0 -145 -44.5 -267t-124 -194t-175.5 -72q-108 0 -200.5 89t-144.5 231.5t-52 300.5zM522 1516q44 14 79.5 37t56 46.5t41 49t37 44.5t42.5 31.5t58 12.5h151l-80 -99q-66 -81 -132.5 -120t-166.5 -39q-55 0 -86 37z" />
<glyph unicode="&#xd4;" horiz-adv-x="1392" d="M100 651q0 -129 29.5 -240.5t80 -190.5t117.5 -135.5t141.5 -84t152.5 -27.5q198 0 349 96.5t231.5 260.5t84.5 368q0 162 -43 291.5t-118 212t-173 126.5t-211 44q-136 0 -255 -53.5t-204 -147.5t-133.5 -229t-48.5 -291zM322 717q0 144 45 265t125 192t178 71 q104 0 194.5 -82.5t144.5 -225t54 -308.5q0 -145 -44.5 -267t-124 -194t-175.5 -72q-108 0 -200.5 89t-144.5 231.5t-52 300.5zM328 1489q37 6 78.5 33t76 61t67 67.5t62.5 56t52 22.5h38h19q27 0 59 -22.5t63.5 -56t64.5 -67.5t72.5 -61t76.5 -33q0 -6 -30 -16.5t-56 -10.5 q-110 0 -175 48t-104 143q-44 -95 -104 -143t-174 -48q-26 0 -56 10.5t-30 16.5z" />
<glyph unicode="&#xd5;" horiz-adv-x="1392" d="M100 651q0 -129 29.5 -240.5t80 -190.5t117.5 -135.5t141.5 -84t152.5 -27.5q198 0 349 96.5t231.5 260.5t84.5 368q0 162 -43 291.5t-118 212t-173 126.5t-211 44q-136 0 -255 -53.5t-204 -147.5t-133.5 -229t-48.5 -291zM256 1522q12 8 30 18t36 18.5t41.5 14.5t46.5 6 q42 0 105.5 -19.5t142.5 -39t159 -19.5q116 0 203 45.5t110 134.5q-32 -18 -50.5 -27.5t-56.5 -20.5t-73 -11q-54 0 -191 38t-208 38q-73 0 -132.5 -17.5t-104.5 -58t-58 -100.5zM322 717q0 144 45 265t125 192t178 71q104 0 194.5 -82.5t144.5 -225t54 -308.5 q0 -145 -44.5 -267t-124 -194t-175.5 -72q-108 0 -200.5 89t-144.5 231.5t-52 300.5z" />
<glyph unicode="&#xd6;" horiz-adv-x="1392" d="M100 651q0 -129 29.5 -240.5t80 -190.5t117.5 -135.5t141.5 -84t152.5 -27.5q198 0 349 96.5t231.5 260.5t84.5 368q0 162 -43 291.5t-118 212t-173 126.5t-211 44q-136 0 -255 -53.5t-204 -147.5t-133.5 -229t-48.5 -291zM322 717q0 144 45 265t125 192t178 71 q104 0 194.5 -82.5t144.5 -225t54 -308.5q0 -145 -44.5 -267t-124 -194t-175.5 -72q-108 0 -200.5 89t-144.5 231.5t-52 300.5zM348 1599q0 46 30.5 79.5t72.5 33.5q41 0 71.5 -33.5t30.5 -79.5q0 -47 -30 -79.5t-72 -32.5t-72.5 32.5t-30.5 79.5zM827 1599q0 46 30.5 79.5 t72.5 33.5q41 0 71.5 -33.5t30.5 -79.5q0 -47 -30 -79.5t-72 -32.5t-72.5 32.5t-30.5 79.5z" />
<glyph unicode="&#xd8;" horiz-adv-x="1392" d="M16 74l70 -72l150 156q69 -94 166.5 -141.5t209.5 -47.5q197 0 351.5 97.5t238 263t86.5 368.5q0 259 -94 420q18 16 50.5 45.5t48 44t34.5 35t27 35.5t8 29q0 16 -14.5 30t-49.5 35q-84 -100 -157 -176q-70 87 -166.5 131.5t-208.5 44.5q-290 0 -473.5 -201t-190.5 -520 q0 -247 82 -411zM324 713q0 224 101.5 377t244.5 153q98 0 171.5 -55t135.5 -156l-608 -612q-45 133 -45 293zM401 332l617 618q59 -138 59 -348q-2 -110 -35.5 -206.5t-86 -161.5t-117 -102.5t-129.5 -37.5q-94 0 -174.5 63.5t-133.5 174.5z" />
<glyph unicode="&#xd9;" horiz-adv-x="1445" d="M168 1315l14 35l46 13q47 13 96 13q64 0 116 -24q-10 -254 -10 -897q0 -86 21.5 -151t53.5 -101t76.5 -58.5t82.5 -29t79 -6.5q150 0 251.5 79.5t109.5 194.5q8 0 8 711q0 159 -53 221l14 35q36 24 103 24q62 0 92 -22q-21 -441 -21 -908q0 -205 -139.5 -339t-382.5 -134 q-89 0 -159 12.5t-132.5 44t-105 83t-68.5 131.5t-29 186q-10 390 -10 662q0 57 -5 98.5t-13 61.5t-17.5 37.5t-17.5 27.5zM401 1737l80 -99q66 -81 133 -120t166 -39q57 0 86 37q-52 16 -91.5 45t-62 58.5t-44 56.5t-49.5 44t-66 17h-152z" />
<glyph unicode="&#xda;" horiz-adv-x="1445" d="M168 1315l14 35l46 13q47 13 96 13q64 0 116 -24q-10 -254 -10 -897q0 -86 21.5 -151t53.5 -101t76.5 -58.5t82.5 -29t79 -6.5q150 0 251.5 79.5t109.5 194.5q8 0 8 711q0 159 -53 221l14 35q36 24 103 24q62 0 92 -22q-21 -441 -21 -908q0 -205 -139.5 -339t-382.5 -134 q-89 0 -159 12.5t-132.5 44t-105 83t-68.5 131.5t-29 186q-10 390 -10 662q0 57 -5 98.5t-13 61.5t-17.5 37.5t-17.5 27.5zM592 1516q52 16 91.5 45t62 58.5t44 56.5t49.5 44t66 17h152l-80 -99q-66 -81 -133 -120t-166 -39q-57 0 -86 37z" />
<glyph unicode="&#xdb;" horiz-adv-x="1445" d="M168 1315l14 35l46 13q47 13 96 13q64 0 116 -24q-10 -254 -10 -897q0 -86 21.5 -151t53.5 -101t76.5 -58.5t82.5 -29t79 -6.5q150 0 251.5 79.5t109.5 194.5q8 0 8 711q0 159 -53 221l14 35q36 24 103 24q62 0 92 -22q-21 -441 -21 -908q0 -205 -139.5 -339t-382.5 -134 q-89 0 -159 12.5t-132.5 44t-105 83t-68.5 131.5t-29 186q-10 390 -10 662q0 57 -5 98.5t-13 61.5t-17.5 37.5t-17.5 27.5zM377 1489q37 6 78.5 33t76 61t67 67.5t62.5 56t52 22.5h39h18q27 0 59 -22.5t63.5 -56t64.5 -67.5t72.5 -61t76.5 -33q0 -6 -30 -16.5t-56 -10.5 q-110 0 -174.5 48t-104.5 143q-44 -95 -104 -143t-174 -48q-26 0 -56 10.5t-30 16.5z" />
<glyph unicode="&#xdc;" horiz-adv-x="1445" d="M168 1315l14 35l46 13q47 13 96 13q64 0 116 -24q-10 -254 -10 -897q0 -86 21.5 -151t53.5 -101t76.5 -58.5t82.5 -29t79 -6.5q150 0 251.5 79.5t109.5 194.5q8 0 8 711q0 159 -53 221l14 35q36 24 103 24q62 0 92 -22q-21 -441 -21 -908q0 -205 -139.5 -339t-382.5 -134 q-89 0 -159 12.5t-132.5 44t-105 83t-68.5 131.5t-29 186q-10 390 -10 662q0 57 -5 98.5t-13 61.5t-17.5 37.5t-17.5 27.5zM389 1599q0 46 30.5 79.5t72.5 33.5q41 0 71.5 -33.5t30.5 -79.5q0 -47 -30 -79.5t-72 -32.5t-72.5 32.5t-30.5 79.5zM868 1599q0 46 30.5 79.5 t72.5 33.5q41 0 71.5 -33.5t30.5 -79.5q0 -47 -30 -79.5t-72 -32.5t-72.5 32.5t-30.5 79.5z" />
<glyph unicode="&#xdd;" horiz-adv-x="1064" d="M494 1531q52 16 91.5 52.5t61.5 76.5t42.5 77.5t48.5 62t66 24.5h122l-79 -140q-109 -186 -277 -186q-23 0 -49.5 13.5t-26.5 19.5zM10 1313l15 35q59 28 143 28q87 0 121 -37q46 -113 144 -303t153 -278l10 26q11 26 25 50l170 301q27 49 27 94q0 44 -25 84l14 35 q61 28 115 28q50 0 108 -28q0 -36 -40 -129t-79 -152l-252 -405q0 -36 -1 -142t-1 -168q0 -239 17 -352h-223v33q0 84 1 200t1 150q0 199 -2 233q-15 15 -43 64l-197 344q-27 47 -58 105t-43 79.5t-30 48t-33 37t-37 19.5z" />
<glyph unicode="&#xdf;" horiz-adv-x="1171" d="M90 942l10 62l24 5q24 5 49 29t28 62q4 56 18 111t47.5 117.5t83 108.5t131.5 76.5t185 30.5q84 0 154 -23.5t116.5 -77.5t46.5 -130q0 -64 -25.5 -130.5t-62 -121t-73 -105.5t-62 -99.5t-25.5 -86.5q0 -28 21 -54.5t55 -49.5t75 -48t81.5 -55.5t74.5 -66t55 -85.5 t21 -108q0 -154 -99 -242t-259 -88q-112 0 -200.5 48t-88.5 129q0 39 23 71q8 -50 76 -92.5t200 -42.5q79 0 127.5 43.5t48.5 110.5q0 33 -20 63t-52 54.5t-71 49.5t-78 53t-71 59t-52 74t-20 93q0 55 23.5 111.5t57 107t66.5 102.5t56.5 117t23.5 133q0 170 -199 170 q-105 0 -168 -64.5t-63 -178.5q0 -27 -3 -270.5t-3 -282.5q0 -431 33 -631h-209v29q0 3 2 100.5t4 225t2 204.5q0 271 -27 309q-20 29 -42 47.5t-34 22.5z" />
<glyph unicode="&#xe0;" horiz-adv-x="1019" d="M86 238q0 96 58 167t150.5 105.5t205.5 34.5q71 0 153 -21q4 82 4 123q0 68 -7 116t-26.5 92t-59 66.5t-99.5 22.5q-69 0 -113.5 -44t-44.5 -101q0 -3 1 -10.5t1 -10.5q-29 -20 -69 -20q-41 0 -70 25t-29 67q0 59 50 103t123 64.5t155 20.5q371 0 371 -293 q0 -10 -1 -46.5t-2 -125t-1 -225.5q0 -152 28 -213q37 -74 142 -74v-36q-30 -19 -89 -35.5t-102 -16.5q-39 0 -69 18t-45.5 43.5t-25.5 56t-13 50.5t-3 33q-27 -89 -116 -145t-176 -56q-92 0 -157.5 39.5t-94.5 98t-29 127.5zM223 1483l80 -140q109 -186 277 -186 q23 0 49 13.5t26 19.5q-52 16 -91 52.5t-61 76.5t-42.5 77.5t-48.5 62t-66 24.5h-123zM270 272q0 -59 41 -105t119 -46q72 0 136.5 31.5t80.5 66.5l6 256q-14 0 -42 -1.5t-92.5 -13t-115.5 -30.5t-92 -60.5t-41 -97.5z" />
<glyph unicode="&#xe1;" horiz-adv-x="1019" d="M86 238q0 96 58 167t150.5 105.5t205.5 34.5q71 0 153 -21q4 82 4 123q0 68 -7 116t-26.5 92t-59 66.5t-99.5 22.5q-69 0 -113.5 -44t-44.5 -101q0 -3 1 -10.5t1 -10.5q-29 -20 -69 -20q-41 0 -70 25t-29 67q0 59 50 103t123 64.5t155 20.5q371 0 371 -293 q0 -10 -1 -46.5t-2 -125t-1 -225.5q0 -152 28 -213q37 -74 142 -74v-36q-30 -19 -89 -35.5t-102 -16.5q-39 0 -69 18t-45.5 43.5t-25.5 56t-13 50.5t-3 33q-27 -89 -116 -145t-176 -56q-92 0 -157.5 39.5t-94.5 98t-29 127.5zM270 272q0 -59 41 -105t119 -46 q72 0 136.5 31.5t80.5 66.5l6 256q-14 0 -42 -1.5t-92.5 -13t-115.5 -30.5t-92 -60.5t-41 -97.5zM358 1190q52 16 91.5 52.5t61.5 76.5t42.5 77.5t48.5 62t66 24.5h123l-80 -140q-109 -186 -277 -186q-23 0 -49.5 13.5t-26.5 19.5z" />
<glyph unicode="&#xe2;" horiz-adv-x="1019" d="M86 238q0 96 58 167t150.5 105.5t205.5 34.5q71 0 153 -21q4 82 4 123q0 68 -7 116t-26.5 92t-59 66.5t-99.5 22.5q-69 0 -113.5 -44t-44.5 -101q0 -3 1 -10.5t1 -10.5q-29 -20 -69 -20q-41 0 -70 25t-29 67q0 59 50 103t123 64.5t155 20.5q371 0 371 -293 q0 -10 -1 -46.5t-2 -125t-1 -225.5q0 -152 28 -213q37 -74 142 -74v-36q-30 -19 -89 -35.5t-102 -16.5q-39 0 -69 18t-45.5 43.5t-25.5 56t-13 50.5t-3 33q-27 -89 -116 -145t-176 -56q-92 0 -157.5 39.5t-94.5 98t-29 127.5zM174 1190q40 9 86.5 57t80 100t70 94t60.5 42 h33h16q24 0 52.5 -27.5t56.5 -68t57 -82t63.5 -75t67.5 -40.5q0 -6 -26.5 -19.5t-49.5 -13.5q-41 0 -70 6.5t-52.5 24t-39 36t-40.5 54.5q-17 22 -30 68l-13 45l-14 -45q-15 -46 -31 -68q-39 -60 -82 -90.5t-119 -30.5q-23 0 -49.5 13.5t-26.5 19.5zM270 272q0 -59 41 -105 t119 -46q72 0 136.5 31.5t80.5 66.5l6 256q-14 0 -42 -1.5t-92.5 -13t-115.5 -30.5t-92 -60.5t-41 -97.5z" />
<glyph unicode="&#xe3;" horiz-adv-x="1019" d="M86 238q0 96 58 167t150.5 105.5t205.5 34.5q71 0 153 -21q4 82 4 123q0 68 -7 116t-26.5 92t-59 66.5t-99.5 22.5q-69 0 -113.5 -44t-44.5 -101q0 -3 1 -10.5t1 -10.5q-29 -20 -69 -20q-41 0 -70 25t-29 67q0 59 50 103t123 64.5t155 20.5q371 0 371 -293 q0 -10 -1 -46.5t-2 -125t-1 -225.5q0 -152 28 -213q37 -74 142 -74v-36q-30 -19 -89 -35.5t-102 -16.5q-39 0 -69 18t-45.5 43.5t-25.5 56t-13 50.5t-3 33q-27 -89 -116 -145t-176 -56q-92 0 -157.5 39.5t-94.5 98t-29 127.5zM152 1241q72 55 129 51q33 -2 124.5 -33.5 t159.5 -35.5q99 -7 176.5 34.5t96.5 128.5q-86 -59 -152 -55q-36 4 -130.5 34.5t-145.5 33.5q-62 4 -114.5 -9.5t-92.5 -51.5t-51 -97zM270 272q0 -59 41 -105t119 -46q72 0 136.5 31.5t80.5 66.5l6 256q-14 0 -42 -1.5t-92.5 -13t-115.5 -30.5t-92 -60.5t-41 -97.5z" />
<glyph unicode="&#xe4;" horiz-adv-x="1019" d="M86 238q0 96 58 167t150.5 105.5t205.5 34.5q71 0 153 -21q4 82 4 123q0 68 -7 116t-26.5 92t-59 66.5t-99.5 22.5q-69 0 -113.5 -44t-44.5 -101q0 -3 1 -10.5t1 -10.5q-29 -20 -69 -20q-41 0 -70 25t-29 67q0 59 50 103t123 64.5t155 20.5q371 0 371 -293 q0 -10 -1 -46.5t-2 -125t-1 -225.5q0 -152 28 -213q37 -74 142 -74v-36q-30 -19 -89 -35.5t-102 -16.5q-39 0 -69 18t-45.5 43.5t-25.5 56t-13 50.5t-3 33q-27 -89 -116 -145t-176 -56q-92 0 -157.5 39.5t-94.5 98t-29 127.5zM205 1313q0 46 30.5 79t71.5 33t72 -33t31 -79 q0 -47 -30.5 -80t-72.5 -33t-72 33t-30 80zM270 272q0 -59 41 -105t119 -46q72 0 136.5 31.5t80.5 66.5l6 256q-14 0 -42 -1.5t-92.5 -13t-115.5 -30.5t-92 -60.5t-41 -97.5zM582 1313q0 46 30.5 79t71.5 33t71.5 -33t30.5 -79q0 -47 -30 -80t-72 -33t-72 33t-30 80z" />
<glyph unicode="&#xe5;" horiz-adv-x="1019" d="M86 238q0 96 58 167t150.5 105.5t205.5 34.5q71 0 153 -21q4 82 4 123q0 68 -7 116t-26.5 92t-59 66.5t-99.5 22.5q-69 0 -113.5 -44t-44.5 -101q0 -3 1 -10.5t1 -10.5q-29 -20 -69 -20q-41 0 -70 25t-29 67q0 59 50 103t123 64.5t155 20.5q371 0 371 -293 q0 -10 -1 -46.5t-2 -125t-1 -225.5q0 -152 28 -213q37 -74 142 -74v-36q-30 -19 -89 -35.5t-102 -16.5q-39 0 -69 18t-45.5 43.5t-25.5 56t-13 50.5t-3 33q-27 -89 -116 -145t-176 -56q-92 0 -157.5 39.5t-94.5 98t-29 127.5zM270 272q0 -59 41 -105t119 -46 q72 0 136.5 31.5t80.5 66.5l6 256q-14 0 -42 -1.5t-92.5 -13t-115.5 -30.5t-92 -60.5t-41 -97.5zM328 1327q0 -80 46 -125t109 -45q85 0 144 53.5t59 132.5q0 77 -47.5 122.5t-112.5 45.5q-84 0 -141 -51t-57 -133zM410 1350q0 53 26.5 78.5t63.5 25.5q43 0 72.5 -33.5 t29.5 -97.5q0 -55 -28 -82t-64 -27q-41 0 -70.5 36t-29.5 100z" />
<glyph unicode="&#xe6;" horiz-adv-x="1529" d="M90 238q0 309 569 352q3 28 3 61q0 56 -3.5 94.5t-14.5 79t-31.5 64.5t-56.5 39.5t-87 15.5q-69 0 -113.5 -44t-44.5 -101l2 -21q-29 -20 -69 -20q-41 0 -70 25t-29 67q0 59 50 103t123 64.5t155 20.5q116 0 200 -37.5t122 -109.5q37 68 117.5 107.5t166.5 39.5 q66 0 121 -15.5t92.5 -40.5t66.5 -59t46 -68.5t27.5 -71.5t14 -65t3.5 -52v-68q-17 -10 -171 -23t-299 -21l-146 -7q16 -418 307 -418q89 0 176.5 48.5t142.5 131.5l4 -17q4 -16 4 -32q0 -76 -59 -143.5t-151 -105.5t-189 -38q-269 0 -367 240q-130 -240 -331 -240 q-92 0 -157.5 39.5t-94.5 98t-29 127.5zM274 272q0 -59 41 -105t119 -46q162 0 252 141q-20 66 -27 266q-24 -1 -66 -10.5t-98.5 -30t-104.5 -48.5t-82 -72t-34 -95zM825 610l445 62v6q-2 20 -5.5 38t-12 49.5t-24.5 56.5t-38.5 49.5t-58.5 38.5t-80 14q-53 0 -93.5 -25.5 t-66 -72.5t-41 -98.5t-25.5 -117.5z" />
<glyph unicode="&#xe7;" horiz-adv-x="966" d="M96 461q0 255 133 416t349 161q80 0 149 -17.5t118.5 -60.5t49.5 -106q0 -36 -28 -64t-76 -28q-40 0 -68 29q-14 133 -186 133q-77 0 -137 -58t-90.5 -147.5t-30.5 -190.5q0 -103 32.5 -191.5t104.5 -148t172 -59.5q89 0 177 48.5t142 131.5l4 -17q4 -16 4 -32 q0 -71 -52 -134.5t-134.5 -102.5t-173.5 -48q-8 -27 -8 -47q0 -16 20.5 -26.5t50.5 -19t59.5 -21.5t50 -41.5t20.5 -71.5q0 -94 -68.5 -161.5t-165.5 -67.5q-73 0 -116.5 28t-43.5 76q0 24 8 45q45 -43 146 -43q48 0 81.5 21.5t33.5 56.5q0 21 -19 37t-46 26.5t-53.5 22.5 t-45.5 33.5t-19 50.5q0 60 58 100q-82 3 -152.5 33.5t-127.5 87.5t-89.5 151t-32.5 216z" />
<glyph unicode="&#xe8;" horiz-adv-x="1007" d="M96 461q0 164 52.5 295t151 206.5t226.5 75.5q73 0 132 -18.5t97 -46t66 -68t42 -77t22.5 -80.5t10 -70t1.5 -55v-48q-43 -24 -119 -24l-493 6q2 -31 2 -82q0 -162 83.5 -254t217.5 -92q89 0 177 48.5t142 131.5l4 -17q4 -16 4 -32q0 -76 -59 -143.5t-151 -105.5 t-189 -38q-67 0 -127 17.5t-113 55.5t-92 94t-62.5 138.5t-25.5 182.5zM279 639l438 8q0 110 -57 193.5t-162 83.5q-49 0 -86 -21t-61.5 -63t-40.5 -88t-31 -113zM231 1483l80 -140q107 -186 276 -186q23 0 49.5 13.5t26.5 19.5q-52 16 -91 52.5t-61 76.5t-42.5 77.5 t-48.5 62t-66 24.5h-123z" />
<glyph unicode="&#xe9;" horiz-adv-x="1007" d="M96 461q0 164 52.5 295t151 206.5t226.5 75.5q73 0 132 -18.5t97 -46t66 -68t42 -77t22.5 -80.5t10 -70t1.5 -55v-48q-43 -24 -119 -24l-493 6q2 -31 2 -82q0 -162 83.5 -254t217.5 -92q89 0 177 48.5t142 131.5l4 -17q4 -16 4 -32q0 -76 -59 -143.5t-151 -105.5 t-189 -38q-67 0 -127 17.5t-113 55.5t-92 94t-62.5 138.5t-25.5 182.5zM279 639l438 8q0 110 -57 193.5t-162 83.5q-49 0 -86 -21t-61.5 -63t-40.5 -88t-31 -113zM350 1190q44 14 79.5 42t55.5 60t40 66.5t35.5 62t41 45t57.5 17.5h123l-80 -140q-107 -186 -276 -186 q-23 0 -49.5 13.5t-26.5 19.5z" />
<glyph unicode="&#xea;" horiz-adv-x="1007" d="M96 461q0 164 52.5 295t151 206.5t226.5 75.5q73 0 132 -18.5t97 -46t66 -68t42 -77t22.5 -80.5t10 -70t1.5 -55v-48q-43 -24 -119 -24l-493 6q2 -31 2 -82q0 -162 83.5 -254t217.5 -92q89 0 177 48.5t142 131.5l4 -17q4 -16 4 -32q0 -76 -59 -143.5t-151 -105.5 t-189 -38q-67 0 -127 17.5t-113 55.5t-92 94t-62.5 138.5t-25.5 182.5zM279 639l438 8q0 110 -57 193.5t-162 83.5q-49 0 -86 -21t-61.5 -63t-40.5 -88t-31 -113zM194 1190q40 9 86.5 57t80 100t70 94t60.5 42h33h16q24 0 52.5 -27.5t56.5 -68t57 -82t63.5 -75t67.5 -40.5 q0 -6 -26.5 -19.5t-49.5 -13.5q-41 0 -70 6.5t-52.5 24t-39 36t-40.5 54.5q-17 22 -30 68l-13 45l-14 -45q-15 -46 -31 -68q-39 -60 -82 -90.5t-119 -30.5q-23 0 -49.5 13.5t-26.5 19.5z" />
<glyph unicode="&#xeb;" horiz-adv-x="1007" d="M96 461q0 164 52.5 295t151 206.5t226.5 75.5q73 0 132 -18.5t97 -46t66 -68t42 -77t22.5 -80.5t10 -70t1.5 -55v-48q-43 -24 -119 -24l-493 6q2 -31 2 -82q0 -162 83.5 -254t217.5 -92q89 0 177 48.5t142 131.5l4 -17q4 -16 4 -32q0 -76 -59 -143.5t-151 -105.5 t-189 -38q-67 0 -127 17.5t-113 55.5t-92 94t-62.5 138.5t-25.5 182.5zM279 639l438 8q0 110 -57 193.5t-162 83.5q-49 0 -86 -21t-61.5 -63t-40.5 -88t-31 -113zM223 1313q0 46 31 79t72 33t71.5 -33t30.5 -79q0 -47 -30 -80t-72 -33t-72.5 33t-30.5 80zM600 1313 q0 46 30.5 79t72.5 33q41 0 71.5 -33t30.5 -79q0 -47 -30 -80t-72 -33t-72.5 32.5t-30.5 80.5z" />
<glyph unicode="&#xec;" horiz-adv-x="573" d="M111 946v37q80 51 182 51q67 0 87 -44.5t15 -127.5l-6 -209q-6 -209 -6 -499q0 -96 12 -154h-202v8l16 690q2 67 -7 117.5t-24 74t-30 37.5t-26 17zM12 1483l80 -140q107 -186 276 -186q23 0 49.5 13.5t26.5 19.5q-52 16 -91 52.5t-61 76.5t-42.5 77.5t-48.5 62t-66 24.5 h-123z" />
<glyph unicode="&#xed;" horiz-adv-x="573" d="M111 946v37q80 51 182 51q67 0 87 -44.5t15 -127.5l-6 -209q-6 -209 -6 -499q0 -96 12 -154h-202v8l16 690q2 67 -7 117.5t-24 74t-30 37.5t-26 17zM127 1190q52 16 91 52.5t61 76.5t42.5 77.5t48.5 62t66 24.5h123l-80 -140q-107 -186 -276 -186q-23 0 -49.5 13.5 t-26.5 19.5z" />
<glyph unicode="&#xee;" horiz-adv-x="573" d="M111 946v37q80 51 182 51q67 0 87 -44.5t15 -127.5l-6 -209q-6 -209 -6 -499q0 -96 12 -154h-202v8l16 690q2 67 -7 117.5t-24 74t-30 37.5t-26 17zM-29 1190q40 9 86.5 57t80 100t70 94t60.5 42h33h16q24 0 52.5 -27.5t56.5 -68t57 -82t63.5 -75t67.5 -40.5 q0 -6 -26.5 -19.5t-49.5 -13.5q-41 0 -70 6.5t-52.5 24t-39 36t-40.5 54.5q-17 22 -30 68l-13 45l-14 -45q-15 -46 -31 -68q-39 -60 -82 -90.5t-119 -30.5q-23 0 -49.5 13.5t-26.5 19.5z" />
<glyph unicode="&#xef;" horiz-adv-x="573" d="M111 946v37q80 51 182 51q67 0 87 -44.5t15 -127.5l-6 -209q-6 -209 -6 -499q0 -96 12 -154h-202v8l16 690q2 67 -7 117.5t-24 74t-30 37.5t-26 17zM-3 1313q0 46 31 79t72 33t71.5 -33t30.5 -79q0 -47 -30 -80t-72 -33t-72.5 33t-30.5 80zM374 1313q0 46 30.5 79 t72.5 33q41 0 71.5 -33t30.5 -79q0 -47 -30 -80t-72 -33t-72.5 32.5t-30.5 80.5z" />
<glyph unicode="&#xf1;" horiz-adv-x="1202" d="M102 983q82 51 183 51q35 0 58 -13.5t33 -37t14 -55.5q2 -15 1 -30q0 -18 -2 -36l-10 -57q25 42 60 80t83 74t113 57.5t137 21.5q104 0 173.5 -73t72.5 -170v-24q0 -46 -2 -170q-1 -67 0 -134q0 -107 2 -215q4 -175 20 -252h-200q-5 37 -5 68q0 16 1 30l4 492v16 q0 140 -34 202q-36 66 -132 69q-172 0 -289 -140q0 -366 4 -583q0 -76 16 -154h-204v8l8 690v12q0 60 -9 106q-10 50 -25.5 73.5t-31 37.5t-26.5 17l-11 2zM260 1241q74 55 129 51q34 -2 125.5 -33.5t159.5 -35.5q99 -7 176 34.5t96 128.5q-86 -59 -151 -55 q-36 4 -130.5 34.5t-146.5 33.5q-61 4 -113.5 -9.5t-93 -51.5t-51.5 -97z" />
<glyph unicode="&#xf2;" d="M96 487q0 -16 1.5 -39.5t10.5 -76t25 -101t49 -104.5t77 -97t115 -68.5t158 -27.5q109 0 204 45t160 120.5t102.5 176.5t37.5 211q0 126 -35.5 226t-96.5 161t-138 93t-164 32q-145 0 -260.5 -71t-180.5 -197t-65 -283zM297 573q0 48 8 97t26.5 96.5t44.5 84.5t65.5 60 t86.5 23q127 0 216.5 -135.5t89.5 -337.5q0 -171 -71.5 -279t-174.5 -108q-125 0 -208 144.5t-83 354.5zM279 1483l80 -140q107 -186 276 -186q23 0 49.5 13.5t26.5 19.5q-52 16 -91 52.5t-61 76.5t-42.5 77.5t-48.5 62t-66 24.5h-123z" />
<glyph unicode="&#xf3;" d="M96 487q0 -16 1.5 -39.5t10.5 -76t25 -101t49 -104.5t77 -97t115 -68.5t158 -27.5q109 0 204 45t160 120.5t102.5 176.5t37.5 211q0 126 -35.5 226t-96.5 161t-138 93t-164 32q-145 0 -260.5 -71t-180.5 -197t-65 -283zM297 573q0 48 8 97t26.5 96.5t44.5 84.5t65.5 60 t86.5 23q127 0 216.5 -135.5t89.5 -337.5q0 -171 -71.5 -279t-174.5 -108q-125 0 -208 144.5t-83 354.5zM413 1190q52 16 91.5 52.5t61.5 76.5t42.5 77.5t48.5 62t66 24.5h122l-79 -140q-109 -186 -277 -186q-23 0 -49.5 13.5t-26.5 19.5z" />
<glyph unicode="&#xf4;" d="M96 487q0 -16 1.5 -39.5t10.5 -76t25 -101t49 -104.5t77 -97t115 -68.5t158 -27.5q109 0 204 45t160 120.5t102.5 176.5t37.5 211q0 126 -35.5 226t-96.5 161t-138 93t-164 32q-145 0 -260.5 -71t-180.5 -197t-65 -283zM297 573q0 48 8 97t26.5 96.5t44.5 84.5t65.5 60 t86.5 23q127 0 216.5 -135.5t89.5 -337.5q0 -171 -71.5 -279t-174.5 -108q-125 0 -208 144.5t-83 354.5zM244 1190q40 9 86.5 57t80 100t70 94t60.5 42h33h16q24 0 52.5 -27.5t56.5 -68t57 -82t63.5 -75t67.5 -40.5q0 -6 -26.5 -19.5t-49.5 -13.5q-41 0 -70 6.5t-52.5 24 t-39 36t-40.5 54.5q-17 22 -30 68l-13 45l-14 -45q-15 -46 -31 -68q-39 -60 -82 -90.5t-119 -30.5q-23 0 -49.5 13.5t-26.5 19.5z" />
<glyph unicode="&#xf5;" d="M96 487q0 -16 1.5 -39.5t10.5 -76t25 -101t49 -104.5t77 -97t115 -68.5t158 -27.5q109 0 204 45t160 120.5t102.5 176.5t37.5 211q0 126 -35.5 226t-96.5 161t-138 93t-164 32q-145 0 -260.5 -71t-180.5 -197t-65 -283zM297 573q0 48 8 97t26.5 96.5t44.5 84.5t65.5 60 t86.5 23q127 0 216.5 -135.5t89.5 -337.5q0 -171 -71.5 -279t-174.5 -108q-125 0 -208 144.5t-83 354.5zM223 1241q74 55 129 51q34 -2 125.5 -33.5t159.5 -35.5q99 -7 176 34.5t96 128.5q-86 -59 -151 -55q-36 4 -130.5 34.5t-146.5 33.5q-61 4 -113.5 -9.5t-93 -51.5 t-51.5 -97z" />
<glyph unicode="&#xf6;" d="M96 487q0 -16 1.5 -39.5t10.5 -76t25 -101t49 -104.5t77 -97t115 -68.5t158 -27.5q109 0 204 45t160 120.5t102.5 176.5t37.5 211q0 126 -35.5 226t-96.5 161t-138 93t-164 32q-145 0 -260.5 -71t-180.5 -197t-65 -283zM297 573q0 48 8 97t26.5 96.5t44.5 84.5t65.5 60 t86.5 23q127 0 216.5 -135.5t89.5 -337.5q0 -171 -71.5 -279t-174.5 -108q-125 0 -208 144.5t-83 354.5zM256 1313q0 46 31 79t72 33t71.5 -33t30.5 -79q0 -47 -30 -80t-72 -33t-72.5 33t-30.5 80zM633 1313q0 46 30.5 79t72.5 33q41 0 71.5 -33t30.5 -79q0 -47 -30 -80 t-72 -33t-72.5 32.5t-30.5 80.5z" />
<glyph unicode="&#xf7;" horiz-adv-x="1001" d="M180 461v131q0 -8 344 -8h102q49 0 86 1t62.5 5t34.5 10q-5 -31 -17.5 -54t-30 -37.5t-40 -25t-48 -14.5t-53.5 -6.5t-56.5 -1.5t-57.5 0q-27 0 -151.5 1t-137.5 1q-29 0 -37 -2zM365 229q0 48 33.5 81.5t82.5 33.5q48 0 81.5 -33.5t33.5 -81.5q0 -49 -33.5 -82.5 t-81.5 -33.5q-49 0 -82.5 33.5t-33.5 82.5zM365 819q0 48 33.5 81.5t82.5 33.5q48 0 81.5 -33.5t33.5 -81.5q0 -49 -33.5 -83t-81.5 -34q-49 0 -82.5 34t-33.5 83z" />
<glyph unicode="&#xf8;" d="M59 74l70 -72l94 102q115 -131 309 -131q109 0 204 45t160 120.5t102.5 176.5t37.5 211q0 190 -80 318l19 16q96 84 96 117q0 16 -14.5 30t-48.5 35l-107 -127q-120 123 -299 123q-145 0 -260.5 -71t-180.5 -197t-65 -283q0 -25 2.5 -59t21.5 -110t52 -136zM297 573 q0 48 8 97t26.5 96.5t44.5 84.5t65.5 60t86.5 23q69 0 129.5 -43t102.5 -119l-432 -434q-31 103 -31 235zM365 246l434 438q35 -105 35 -223q0 -171 -71.5 -279t-174.5 -108q-68 0 -126 45.5t-97 126.5z" />
<glyph unicode="&#xf9;" horiz-adv-x="1204" d="M90 948v35q30 20 79 35.5t91 15.5q66 0 94 -33t28 -100v-48q0 -52 -1 -120l-2 -319v-17q-1 -141 31 -199q34 -62 129 -63q167 0 282 135q6 252 6 410q0 67 -8.5 124.5t-17.5 78.5q-15 32 -32.5 47.5t-43.5 21.5v35l23 11q23 12 62.5 24t72.5 12q85 0 107 -37t22 -172 v-516q0 -37 3.5 -68.5t8 -54.5t13.5 -42t16 -31t20 -21.5t21 -14t22.5 -8t22 -4.5t22 -2t19.5 -2v-36q-20 -14 -77.5 -33t-105.5 -19q-39 0 -68.5 14t-47.5 35.5t-29.5 53t-16 61.5t-6.5 66q-26 -42 -61 -80t-83 -73t-112.5 -56t-136.5 -21q-104 0 -172.5 73.5t-70.5 170.5 l4 277q1 57 1 104q0 78 -3 128q-5 80 -29 148q-10 29 -29 47.5t-33 22.5zM301 1483l80 -140q107 -186 276 -186q23 0 49.5 13.5t26.5 19.5q-52 16 -91 52.5t-61 76.5t-42.5 77.5t-48.5 62t-66 24.5h-123z" />
<glyph unicode="&#xfa;" horiz-adv-x="1204" d="M90 948v35q30 20 79 35.5t91 15.5q66 0 94 -33t28 -100v-48q0 -52 -1 -120l-2 -319v-17q-1 -141 31 -199q34 -62 129 -63q167 0 282 135q6 252 6 410q0 67 -8.5 124.5t-17.5 78.5q-15 32 -32.5 47.5t-43.5 21.5v35l23 11q23 12 62.5 24t72.5 12q85 0 107 -37t22 -172 v-516q0 -37 3.5 -68.5t8 -54.5t13.5 -42t16 -31t20 -21.5t21 -14t22.5 -8t22 -4.5t22 -2t19.5 -2v-36q-20 -14 -77.5 -33t-105.5 -19q-39 0 -68.5 14t-47.5 35.5t-29.5 53t-16 61.5t-6.5 66q-26 -42 -61 -80t-83 -73t-112.5 -56t-136.5 -21q-104 0 -172.5 73.5t-70.5 170.5 l4 277q1 57 1 104q0 78 -3 128q-5 80 -29 148q-10 29 -29 47.5t-33 22.5zM436 1190q52 16 91.5 52.5t61.5 76.5t42.5 77.5t48.5 62t66 24.5h122l-79 -140q-109 -186 -277 -186q-23 0 -49.5 13.5t-26.5 19.5z" />
<glyph unicode="&#xfb;" horiz-adv-x="1204" d="M90 948v35q30 20 79 35.5t91 15.5q66 0 94 -33t28 -100v-48q0 -52 -1 -120l-2 -319v-17q-1 -141 31 -199q34 -62 129 -63q167 0 282 135q6 252 6 410q0 67 -8.5 124.5t-17.5 78.5q-15 32 -32.5 47.5t-43.5 21.5v35l23 11q23 12 62.5 24t72.5 12q85 0 107 -37t22 -172 v-516q0 -37 3.5 -68.5t8 -54.5t13.5 -42t16 -31t20 -21.5t21 -14t22.5 -8t22 -4.5t22 -2t19.5 -2v-36q-20 -14 -77.5 -33t-105.5 -19q-39 0 -68.5 14t-47.5 35.5t-29.5 53t-16 61.5t-6.5 66q-26 -42 -61 -80t-83 -73t-112.5 -56t-136.5 -21q-104 0 -172.5 73.5t-70.5 170.5 l4 277q1 57 1 104q0 78 -3 128q-5 80 -29 148q-10 29 -29 47.5t-33 22.5zM252 1190q40 9 86.5 57t80 100t70 94t60.5 42h33h16q24 0 52.5 -27.5t56.5 -68t57 -82t63.5 -75t67.5 -40.5q0 -6 -26.5 -19.5t-49.5 -13.5q-41 0 -70 6.5t-52.5 24t-39 36t-40.5 54.5q-17 22 -30 68 l-13 45l-14 -45q-15 -46 -31 -68q-39 -60 -82 -90.5t-119 -30.5q-23 0 -49.5 13.5t-26.5 19.5z" />
<glyph unicode="&#xfc;" horiz-adv-x="1204" d="M90 948v35q30 20 79 35.5t91 15.5q66 0 94 -33t28 -100v-48q0 -52 -1 -120l-2 -319v-17q-1 -141 31 -199q34 -62 129 -63q167 0 282 135q6 252 6 410q0 67 -8.5 124.5t-17.5 78.5q-15 32 -32.5 47.5t-43.5 21.5v35l23 11q23 12 62.5 24t72.5 12q85 0 107 -37t22 -172 v-516q0 -37 3.5 -68.5t8 -54.5t13.5 -42t16 -31t20 -21.5t21 -14t22.5 -8t22 -4.5t22 -2t19.5 -2v-36q-20 -14 -77.5 -33t-105.5 -19q-39 0 -68.5 14t-47.5 35.5t-29.5 53t-16 61.5t-6.5 66q-26 -42 -61 -80t-83 -73t-112.5 -56t-136.5 -21q-104 0 -172.5 73.5t-70.5 170.5 l4 277q1 57 1 104q0 78 -3 128q-5 80 -29 148q-10 29 -29 47.5t-33 22.5zM292 1313q0 46 31 79t72 33t71.5 -33t30.5 -79q0 -47 -30 -80t-72 -33t-72.5 33t-30.5 80zM669 1313q0 46 30.5 79t72.5 33q41 0 71.5 -33t30.5 -79q0 -47 -30 -80t-72 -33t-72.5 32.5t-30.5 80.5z " />
<glyph unicode="&#xfd;" horiz-adv-x="1019" d="M500 1193q52 16 91.5 52.5t61.5 76.5t42.5 77.5t48.5 62t66 24.5h122l-79 -140q-109 -186 -277 -186q-23 0 -49.5 13.5t-26.5 19.5zM10 983q25 19 77.5 35t92.5 16q68 0 98.5 -31.5t47.5 -103.5q22 -103 194 -590q28 -77 55 -133q10 46 43 137l162 426q29 68 29 129 q0 58 -35 78v37q22 20 64.5 35.5t83.5 15.5q69 0 69 -69q0 -26 -9 -60t-20.5 -61t-21.5 -53l-418 -1004q-11 -28 -22.5 -55.5t-22.5 -52.5t-23 -48.5t-24.5 -44t-26.5 -38.5t-30 -33.5t-35 -27t-40 -19.5t-46.5 -12.5t-54.5 -4.5q-86 0 -129 49t-43 127q0 29 2 43 q10 -25 54 -40t91 -15q164 0 211 115l94 225q7 18 17 33l10 14q-39 11 -73 42t-44 67l-184 577q-20 64 -46.5 113.5t-48.5 75t-45 42.5t-33.5 21.5t-17.5 5.5z" />
<glyph unicode="&#xff;" horiz-adv-x="929" d="M10 983q25 19 77.5 35t92.5 16q68 0 98.5 -31.5t47.5 -103.5q22 -103 194 -590q28 -77 55 -133q10 46 43 137l162 426q29 68 29 129q0 58 -35 78v37q22 20 64.5 35.5t83.5 15.5q69 0 69 -69q0 -26 -9 -60t-20.5 -61t-21.5 -53l-418 -1004q-11 -28 -22.5 -55.5 t-22.5 -52.5t-23 -48.5t-24.5 -44t-26.5 -38.5t-30 -33.5t-35 -27t-40 -19.5t-46.5 -12.5t-54.5 -4.5q-86 0 -129 49t-43 127q0 29 2 43q10 -25 54 -40t91 -15q164 0 211 115l94 225q7 18 17 33l10 14q-39 11 -73 42t-44 67l-184 577q-20 64 -46.5 113.5t-48.5 75t-45 42.5 t-33.5 21.5t-17.5 5.5zM258 1313q0 46 30.5 79t71.5 33q42 0 72.5 -33t30.5 -79q0 -48 -30.5 -80.5t-72.5 -32.5t-72 33t-30 80zM635 1313q0 46 30.5 79t71.5 33q42 0 72.5 -33t30.5 -79q0 -48 -30.5 -80.5t-72.5 -32.5t-72 33t-30 80z" />
<glyph unicode="&#x131;" horiz-adv-x="573" d="M111 946v37q80 51 182 51q67 0 87 -44.5t15 -127.5l-6 -209q-6 -209 -6 -499q0 -96 12 -154h-202v8l16 690q2 67 -7 117.5t-24 74t-30 37.5t-26 17z" />
<glyph unicode="&#x152;" horiz-adv-x="1730" d="M102 641q6 201 80.5 360t215 253t325.5 94h479l350 6q23 -24 34 -75.5t8 -96t-15 -56.5h-39q-9 47 -69 78.5t-146 34.5l-174 6q-14 -243 -14 -500h321q28 0 47 6.5t24 13.5l5 7q4 0 4 -41q0 -24 -7 -42.5t-16.5 -30t-27.5 -20t-30.5 -12.5t-36 -6t-33.5 -2h-33 q-2 0 -50.5 1t-91 2t-77.5 0q-2 -202 6 -480q0 -4 4 -12h389q28 0 47 6.5t24 13.5l5 7q4 0 4 -41q0 -33 -13.5 -56t-30 -34.5t-46 -17t-47 -6.5t-47.5 -1h-699q-99 0 -190 24t-172 75.5t-140.5 125.5t-93.5 181t-33 235zM326 739q-4 -175 63 -320.5t183 -227.5t253 -82h105 v30v951q0 94 -15 149h-217q-68 0 -134 -36t-118.5 -99.5t-85.5 -159t-34 -205.5z" />
<glyph unicode="&#x153;" horiz-adv-x="1720" d="M98 473q-3 160 61.5 289.5t181.5 202.5t263 73q102 0 187.5 -46.5t134.5 -139.5q46 89 129.5 137.5t183.5 48.5q73 0 132 -18.5t96.5 -46t65.5 -68t42.5 -77t22.5 -80t10 -70.5t2 -55v-48q-43 -24 -119 -24l-498 6q5 -193 81 -310.5t226 -117.5q89 0 177 48.5t143 131.5 l4 -17q4 -16 4 -32q0 -76 -59 -143.5t-151 -105.5t-189 -38q-69 0 -133.5 19.5t-121 64t-81.5 107.5q-48 -91 -150 -142t-219 -51q-82 0 -155.5 29.5t-134 88.5t-97.5 158t-39 226zM297 573q2 -139 38 -252t102.5 -180t150.5 -67q100 0 164 107.5t61 279.5q-3 207 -81 340 t-204 133q-102 0 -168 -101.5t-63 -259.5zM985 639l445 8q0 51 -13.5 99t-39 88.5t-69 65t-98.5 24.5q-94 0 -146.5 -75.5t-78.5 -209.5z" />
<glyph unicode="&#x178;" horiz-adv-x="1005" d="M10 1313l15 35q59 28 143 28q87 0 121 -37q46 -113 144 -303t153 -278l10 26q11 26 25 50l170 301q52 96 2 178l14 35q61 28 115 28q50 0 108 -28q0 -36 -40 -129t-79 -152l-252 -405q0 -36 -1 -142t-1 -168q0 -239 17 -352h-223v33q0 84 1 200t1 150q0 199 -2 233 q-15 15 -43 64l-197 344q-27 47 -58 105t-43 79.5t-30 48t-33 37t-37 19.5zM207 1599q0 46 30.5 79.5t71.5 33.5q42 0 72.5 -33.5t30.5 -79.5q0 -47 -30.5 -79.5t-72.5 -32.5t-72 32.5t-30 79.5zM686 1599q0 46 30.5 79.5t71.5 33.5q42 0 72.5 -33.5t30.5 -79.5 q0 -47 -30.5 -79.5t-72.5 -32.5t-72 32.5t-30 79.5z" />
<glyph unicode="&#x2c6;" horiz-adv-x="823" d="M88 1190q40 9 86.5 57t80 100t70 94t60.5 42h33h16q24 0 52.5 -27.5t56.5 -68t57 -82t63.5 -75t67.5 -40.5q0 -6 -26.5 -19.5t-49.5 -13.5q-41 0 -70 6.5t-52.5 24t-39 36t-40.5 54.5q-17 22 -30 68l-13 45l-14 -45q-15 -46 -31 -68q-39 -60 -82 -90.5t-119 -30.5 q-23 0 -49.5 13.5t-26.5 19.5z" />
<glyph unicode="&#x2da;" horiz-adv-x="1064" d="M344 1327q0 -80 46.5 -125t109.5 -45q85 0 143.5 53.5t58.5 132.5q0 77 -47 122.5t-112 45.5q-85 0 -142 -51t-57 -133zM426 1350q0 53 26.5 78.5t63.5 25.5q43 0 72.5 -33.5t29.5 -97.5q0 -55 -28 -82t-64 -27q-41 0 -70.5 36t-29.5 100z" />
<glyph unicode="&#x2dc;" horiz-adv-x="778" d="M51 1241q74 55 129 51q34 -2 125.5 -33.5t159.5 -35.5q99 -7 176 34.5t96 128.5q-86 -59 -151 -55q-36 4 -130.5 34.5t-146.5 33.5q-61 4 -113.5 -9.5t-93 -51.5t-51.5 -97z" />
<glyph unicode="&#x2000;" horiz-adv-x="912" />
<glyph unicode="&#x2001;" horiz-adv-x="1824" />
<glyph unicode="&#x2002;" horiz-adv-x="912" />
<glyph unicode="&#x2003;" horiz-adv-x="1824" />
<glyph unicode="&#x2004;" horiz-adv-x="608" />
<glyph unicode="&#x2005;" horiz-adv-x="456" />
<glyph unicode="&#x2006;" horiz-adv-x="304" />
<glyph unicode="&#x2007;" horiz-adv-x="304" />
<glyph unicode="&#x2008;" horiz-adv-x="228" />
<glyph unicode="&#x2009;" horiz-adv-x="364" />
<glyph unicode="&#x200a;" horiz-adv-x="101" />
<glyph unicode="&#x2010;" horiz-adv-x="618" d="M59 436v131q0 -8 222 -8h102q48 0 85 1t62.5 5t34.5 10q-5 -31 -17.5 -54t-30 -37.5t-40 -25t-48 -14.5t-53.5 -6.5t-56.5 -1.5t-57.5 0q-27 0 -90 1t-76 1q-28 0 -37 -2z" />
<glyph unicode="&#x2011;" horiz-adv-x="618" d="M59 436v131q0 -8 222 -8h102q48 0 85 1t62.5 5t34.5 10q-5 -31 -17.5 -54t-30 -37.5t-40 -25t-48 -14.5t-53.5 -6.5t-56.5 -1.5t-57.5 0q-27 0 -90 1t-76 1q-28 0 -37 -2z" />
<glyph unicode="&#x2012;" horiz-adv-x="618" d="M59 436v131q0 -8 222 -8h102q48 0 85 1t62.5 5t34.5 10q-5 -31 -17.5 -54t-30 -37.5t-40 -25t-48 -14.5t-53.5 -6.5t-56.5 -1.5t-57.5 0q-27 0 -90 1t-76 1q-28 0 -37 -2z" />
<glyph unicode="&#x2013;" horiz-adv-x="925" d="M59 438v131q0 -8 529 -8h102q48 0 85 1t62.5 5t34.5 11q-5 -31 -17.5 -54.5t-30 -38t-40 -24.5t-48 -14.5t-53.5 -7t-56.5 -1.5t-57.5 0q-27 0 -243.5 1t-229.5 1q-28 0 -37 -2z" />
<glyph unicode="&#x2014;" horiz-adv-x="1390" d="M53 438v131q0 -8 1000 -8h102q48 0 85 1t62.5 5t34.5 11q-5 -31 -17.5 -54.5t-30 -38t-40 -24.5t-48 -14.5t-53.5 -7t-56.5 -1.5t-57.5 0q-27 0 -479 1t-465 1q-29 0 -37 -2z" />
<glyph unicode="&#x2018;" horiz-adv-x="452" d="M82 1186q0 80 68.5 178.5t191.5 177.5l37 -49q-135 -129 -135 -225q0 -52 16 -71t43 -19q6 -49 -26.5 -86t-77.5 -37q-58 0 -87.5 34.5t-29.5 96.5z" />
<glyph unicode="&#x2019;" horiz-adv-x="452" d="M70 1104q135 129 135 225q0 52 -16 71t-44 19q-6 49 26.5 86t78.5 37q58 0 87.5 -34t29.5 -97q0 -80 -68.5 -178.5t-192.5 -177.5z" />
<glyph unicode="&#x201a;" horiz-adv-x="452" d="M70 -246q135 129 135 226q0 90 -60 90q-6 48 26.5 85.5t78.5 37.5q58 0 87.5 -34.5t29.5 -97.5q0 -80 -68.5 -178.5t-192.5 -177.5z" />
<glyph unicode="&#x201c;" horiz-adv-x="813" d="M84 1186q0 80 68.5 178.5t191.5 177.5l37 -49q-135 -129 -135 -225q0 -52 16 -71t43 -19q6 -49 -26.5 -86t-77.5 -37q-58 0 -87.5 34.5t-29.5 96.5zM442 1186q0 80 68.5 178.5t191.5 177.5l37 -49q-135 -129 -135 -225q0 -52 16 -71t44 -19q6 -49 -27 -86t-78 -37 q-58 0 -87.5 34.5t-29.5 96.5z" />
<glyph unicode="&#x201d;" horiz-adv-x="813" d="M70 1104q135 129 135 225q0 52 -16 71t-44 19q-6 49 26.5 86t78.5 37q58 0 87.5 -34t29.5 -97q0 -80 -68.5 -178.5t-192.5 -177.5zM428 1104q135 129 135 225q0 52 -16 71t-43 19q-6 49 26.5 86t77.5 37q58 0 87.5 -34t29.5 -97q0 -80 -68.5 -178.5t-191.5 -177.5z" />
<glyph unicode="&#x201e;" horiz-adv-x="813" d="M74 -246q135 129 135 226q0 90 -59 90q-7 48 26 85.5t78 37.5q58 0 87.5 -34.5t29.5 -97.5q0 -80 -68.5 -178t-191.5 -178zM432 -246q135 129 135 226q0 90 -59 90q-6 48 26.5 85.5t77.5 37.5q58 0 87.5 -34.5t29.5 -97.5q0 -80 -68.5 -178t-191.5 -178z" />
<glyph unicode="&#x2022;" horiz-adv-x="868" d="M178 506q0 104 74 178t180 74q104 0 179 -74t75 -178q0 -105 -74.5 -179.5t-179.5 -74.5q-106 0 -180 74t-74 180z" />
<glyph unicode="&#x2026;" horiz-adv-x="1357" d="M158 84q0 44 32 76.5t78 32.5q45 0 77 -32.5t32 -76.5q0 -46 -32 -78.5t-77 -32.5q-46 0 -78 32.5t-32 78.5zM578 84q0 44 32 76.5t78 32.5q45 0 77 -32.5t32 -76.5q0 -46 -32 -78.5t-77 -32.5q-46 0 -78 32.5t-32 78.5zM987 84q0 45 32.5 77t78.5 32q44 0 76 -32.5 t32 -76.5q0 -46 -32 -78.5t-76 -32.5q-46 0 -78.5 32.5t-32.5 78.5z" />
<glyph unicode="&#x202f;" horiz-adv-x="364" />
<glyph unicode="&#x2039;" horiz-adv-x="755" d="M80 506l41 41l268 319q46 56 90 86t78 32.5t58 -5t44 -23.5q-18 -6 -42 -27t-39 -39l-15 -18l-227 -303q-16 -21 -42 -42l-26 -21l26 -21q26 -21 42 -43l227 -303l15 -17q15 -18 39 -39t42 -28q-20 -16 -44 -23.5t-58 -4.5t-78 32.5t-90 85.5l-268 320z" />
<glyph unicode="&#x203a;" horiz-adv-x="755" d="M82 55q20 -16 44 -23.5t58 -4.5t78 32.5t90 85.5l269 320l41 41l-41 41l-269 319q-46 56 -90 86t-78 32.5t-58 -5t-44 -23.5q18 -6 42 -27t39 -39l15 -18l228 -303q15 -21 41 -42l26 -21l-26 -21q-26 -21 -41 -43l-228 -303l-15 -17q-15 -18 -39 -39t-42 -28z" />
<glyph unicode="&#x2044;" horiz-adv-x="1044" d="M-6 0q526 751 711.5 1026t189.5 324q40 30 82 30q61 0 61 -41q0 -32 -39.5 -91.5t-56.5 -78.5q-2 -3 -185.5 -262t-371 -532t-246.5 -375h-145z" />
<glyph unicode="&#x205f;" horiz-adv-x="456" />
<glyph unicode="&#x20ac;" horiz-adv-x="1183" d="M25 731l24 131q0 -6 127 -6q56 236 228 376t413 140q189 0 272 -68t9 -174q-2 24 -38.5 51t-108.5 47.5t-158 20.5q-174 0 -297 -112.5t-160 -282.5h385h102q48 0 85.5 1t63 5t34.5 10q-5 -31 -17.5 -54t-30 -37.5t-40.5 -25t-48 -14.5t-53.5 -6.5t-57 -1.5t-57.5 0h-378 q0 -71 10 -164h264h102q48 0 85.5 1t63 5t34.5 11q-5 -31 -17.5 -54.5t-30 -38t-40 -24.5t-48 -14.5t-53.5 -7t-56.5 -1.5t-57.5 0h-222q105 -354 461 -354q30 0 74.5 8.5t108.5 37.5t106 73q3 -118 -92.5 -178t-259.5 -60q-236 0 -386.5 127.5t-197.5 347.5h-106 q-29 0 -37 -2l20 131q28 -4 105 -4q-2 25 -2 74q0 60 4 88h-95q-28 0 -36 -2z" />
<glyph unicode="&#x2122;" horiz-adv-x="1642" d="M72 1292l4 62q69 0 133 108h82l-17 -108h129q27 0 45.5 6.5t23.5 13.5l5 6q17 -54 -13 -90.5t-93 -36.5q-5 0 -46 1.5t-51 0.5q0 -66 -1 -152t-1 -138v-39q0 -9 1.5 -32t4 -31.5t7.5 -23.5t13 -21t20 -12.5t28 -8.5q38 -4 85.5 12.5t57.5 32.5q14 -65 -32.5 -119.5 t-132.5 -54.5q-110 0 -148.5 53t-38.5 164q0 44 4 137.5t4 136.5q0 78 -12 92q-12 16 -27 26t-22.5 12.5t-11.5 2.5zM551 1292v41q63 37 129 37q50 0 65.5 -30.5t10.5 -86.5q95 121 235 121q61 0 104.5 -34t59.5 -87q91 121 236 121q71 0 118.5 -49.5t49.5 -116.5v-88 q0 -22 -1.5 -80.5t-1.5 -91.5q0 -193 17 -262h-150q-7 33 -4 195.5t2 195.5q3 93 -18 132.5t-78 39.5q-91 0 -164 -65q0 -13 -2 -86t-2 -123q0 -208 19 -289h-150q-4 59 -4.5 122t1 147t1.5 122q0 94 -20.5 133t-75.5 39q-105 0 -176 -84q0 -233 4 -370q0 -22 12 -109h-156 l9 459q1 49 -10 82.5t-24.5 45.5t-24.5 15z" />
<glyph unicode="&#xe000;" horiz-adv-x="1035" d="M0 1035h1035v-1035h-1035v1035z" />
<glyph unicode="&#xfb01;" horiz-adv-x="1214" d="M90 942l10 62l24 5q24 5 49 29t28 62q4 56 19 111t50.5 117t88 108.5t139 77t194.5 30.5q66 0 138 -22.5t128 -71.5t56 -113q0 -46 -21.5 -74.5t-52.5 -35.5t-64 0t-57 26l3 11q2 12 1 24q-3 50 -61.5 94.5t-147.5 44.5q-109 0 -172 -71.5t-63 -175.5q0 -144 -6 -172h153 q28 0 46 6t22 12l4 6q4 0 4 -39q0 -24 -7.5 -42.5t-20.5 -30t-30 -20t-36 -12t-38.5 -5.5t-37.5 -1t-33.5 1t-25.5 2v-150q0 -590 33 -735h-209v29q0 3 2 100.5t4 225t2 204.5q0 271 -27 309q-20 29 -42 47.5t-34 22.5zM776 946v37q82 51 182 51q36 0 59 -13.5t32 -37 t12.5 -55t-0.5 -66.5l-6 -209q-6 -209 -6 -499q0 -96 12 -154h-203v8l16 690q2 57 -4 101.5t-17 70t-24.5 42.5t-25 23.5t-19.5 8.5z" />
<glyph unicode="&#xfb02;" horiz-adv-x="1245" d="M92 942l10 62l24 5q24 5 49 29t28 62q4 56 19 111t50.5 117t88 108.5t139 77t194.5 30.5q175 0 326 -71q21 -10 33.5 -23t18.5 -25.5t7 -37.5t-0.5 -43.5t-4.5 -59t-5 -70.5q-12 -250 -11.5 -590t9.5 -538q1 -25 12 -86h-205v31q4 381 2 810l-2 429q0 31 -4 51 q-38 38 -111.5 72t-142.5 34q-109 0 -172 -71.5t-63 -175.5q0 -144 -6 -172h198q28 0 46 6t22 12l4 6q4 0 4 -39q0 -34 -17 -57.5t-41 -34t-59.5 -15.5t-60.5 -5t-57.5 2t-38.5 2v-150q0 -590 33 -735h-209v29q0 3 2 100.5t4 225t2 204.5q0 271 -27 309q-20 29 -42 47.5 t-34 22.5z" />
<glyph unicode="&#xfb03;" horiz-adv-x="1916" d="M92 942l10 62l24 5q24 5 49 29t28 62q4 57 16.5 107t43 105.5t76.5 94.5t123.5 64.5t176.5 25.5q100 0 188 -33.5t142 -101.5q129 182 401 182q66 0 138 -22.5t128 -71.5t56 -113q0 -57 -31.5 -85.5t-75.5 -28.5q-50 0 -88 30q4 0 4 27q0 51 -58 99t-151 48 q-109 0 -172 -71.5t-63 -175.5q0 -144 -6 -172h153q28 0 46 6t22 12l4 6q4 0 4 -39q0 -110 -164 -110q-14 0 -37 1t-28 1q0 -744 32 -885h-209v29q0 3 2 100.5t4.5 225t2.5 204.5q0 271 -27 309q-20 29 -42 47.5t-34 22.5l-12 4l10 62l24 5q23 5 48.5 29t28.5 62 q7 87 36 166q-32 52 -110 84t-166 32q-108 0 -183 -51t-75 -151q0 -144 -6 -172h133q27 0 45 6t23 12l4 6q4 0 4 -39q0 -37 -15.5 -60.5t-43 -32t-52.5 -11.5t-56 -2.5t-42 -1.5v-150q0 -590 33 -735h-209v29q0 3 2 100.5t4 225t2 204.5q0 271 -27 309q-20 29 -42 47.5 t-34 22.5zM1454 946v37q82 51 182 51q59 0 82 -35t23 -98q0 -11 -0.5 -14.5t-1.5 -2.5t-2.5 -10.5t-3 -32t-3 -72.5t-2.5 -126.5t-1.5 -200.5t-0.5 -288q0 -91 13 -154h-203l16 698q0 67 -10 117.5t-22.5 74t-28.5 37.5t-24 16.5t-13 2.5z" />
<glyph unicode="&#xfb04;" horiz-adv-x="1915" d="M1451 1458v37l20 13q20 12 61.5 25t85.5 13q68 0 97.5 -36.5t31.5 -110.5v-31q0 -65 -6 -154q-12 -240 -11 -563v-27q0 -340 9 -538q1 -17 13 -86h-205v31q2 229 2 475q0 164 -1 337l-1 431q0 84 -25.5 131t-70.5 53zM763 942l12 -4q12 -4 34 -22.5t42 -47.5 q27 -38 27 -309q0 -77 -2 -204.5t-4 -225t-2 -100.5v-29h209q-33 149 -33 754v133q7 0 65.5 -1t73.5 -1q156 0 156 108l-4 39l-4 -6q-5 -6 -23 -12t-45 -6h-225q4 8 4 47v20l-4 142v17q0 185 145 185q40 0 67 -24.5t33 -59.5q24 -10 54 -10q39 1 64.5 27.5t25.5 62.5 q0 64 -61.5 97.5t-139.5 33.5q-43 0 -84.5 -11.5t-85.5 -41.5t-79 -76t-61.5 -121t-35.5 -170q-5 -61 -36.5 -89.5t-72.5 -32.5zM92 942l12 -4q12 -4 34 -22.5t42 -47.5q27 -38 27 -309q0 -77 -2 -204.5t-4 -225t-2 -100.5v-29h209q-33 149 -33 754v133q7 0 65.5 -1t73.5 -1 q156 0 156 108l-4 39l-4 -6q-5 -6 -23 -12t-45 -6h-225q4 8 4 47v20l-4 142v17q0 185 145 185q40 0 67 -24.5t33 -59.5q24 -10 54 -10q39 1 64.5 27.5t25.5 62.5q0 64 -61.5 97.5t-139.5 33.5q-43 0 -84.5 -11.5t-85.5 -41.5t-79 -76t-61.5 -121t-35.5 -170 q-5 -61 -36.5 -89.5t-72.5 -32.5z" />
<glyph horiz-adv-x="409" />
</font>
</defs>
</svg>
